<svg xmlns="http://www.w3.org/2000/svg" preserveAspectRatio="xMidYMid" width="40" height="40" viewBox="0 0 40 40"><defs><style>.cls-1{fill:#ffa53b}.cls-2{fill:#fff;fill-rule:evenodd}</style></defs><rect width="40" height="40" rx="5" ry="5" class="cls-1"/><path d="M26.5 36h-12a3 3 0 0 1-3-3V17a3 3 0 0 1 3-3h12a3 3 0 0 1 3 3v16a3 3 0 0 1-3 3zm1-18a1 1 0 0 0-2 0v12a1 1 0 0 0 2 0V18zm.5-5H13a1.5 1.5 0 0 1 0-3h2.5a3 3 0 0 1 3-3V6a2 2 0 1 1 4 0v1a3 3 0 0 1 3 3H28a1.5 1.5 0 0 1 0 3z" class="cls-2"/></svg>