<svg xmlns="http://www.w3.org/2000/svg" preserveAspectRatio="xMidYMid" width="40" height="40.001" viewBox="0 0 40 40.001"><defs><style>.cls-1{fill:#3fa7ff}.cls-2,.cls-3{fill:#fff}.cls-3{fill-rule:evenodd}</style></defs><rect width="40" height="40.001" rx="5" ry="5" class="cls-1"/><rect x="15" y="6.531" width="10" height="10" rx="1" ry="1" class="cls-2"/><path d="M33 33.531h-6a1 1 0 0 1-1-1v-6a1 1 0 0 1 1-1h2v-4H11v4h2a1 1 0 0 1 1 1v6a1 1 0 0 1-1 1H7a1 1 0 0 1-1-1v-6a1 1 0 0 1 1-1h2v-6h10v-4h2v4h10v6h2a1 1 0 0 1 1 1v6a1 1 0 0 1-1 1z" class="cls-3"/></svg>