<svg xmlns="http://www.w3.org/2000/svg" preserveAspectRatio="xMidYMid" width="38.344" height="34.594" viewBox="0 0 38.344 34.594"><defs><style>.cls-1{fill:#e4e4e4;fill-rule:evenodd}</style></defs><path d="M29.828 34.593H8.524c-4.695 0-8.515-3.82-8.515-8.516V8.674C.009 4.39 3.213.757 7.461.223l1.591-.2v1.704a1.093 1.093 0 0 0 2.183 0V.156h6.693v1.415c0 .688.56 1.248 1.248 1.248a1.25 1.25 0 0 0 1.248-1.248V.156h7.268v1.415c0 .688.56 1.248 1.248 1.248.644 0 1.19-.502 1.243-1.143l.138-1.669 1.623.415a8.51 8.51 0 0 1 6.399 8.252v17.403c0 4.696-3.82 8.516-8.515 8.516zm5.685-25.919a5.687 5.687 0 0 0-3.053-5.045 4.067 4.067 0 0 1-.751.933 4.062 4.062 0 0 1-2.769 1.087 4.085 4.085 0 0 1-3.825-2.663h-2.114a4.085 4.085 0 0 1-3.825 2.663 4.084 4.084 0 0 1-3.824-2.663h-1.494a3.929 3.929 0 0 1-3.714 2.663 3.926 3.926 0 0 1-3.577-2.316 5.701 5.701 0 0 0-3.728 5.341v17.403a5.692 5.692 0 0 0 5.685 5.686h21.304a5.692 5.692 0 0 0 5.685-5.686V8.674zm-5.548 18.349H8.388a1.415 1.415 0 1 1 0-2.83h21.577a1.415 1.415 0 0 1 0 2.83zm0-7.152H8.388a1.415 1.415 0 1 1 0-2.83h21.577a1.414 1.414 0 0 1 0 2.83zm0-7.499H8.388a1.414 1.414 0 1 1 0-2.83h21.577a1.415 1.415 0 0 1 0 2.83z" class="cls-1"/></svg>