<svg xmlns="http://www.w3.org/2000/svg" preserveAspectRatio="xMidYMid" width="16.938" height="17.5" viewBox="0 0 16.938 17.5"><defs><style>.cls-1{fill:#3cbffd;stroke:#aaa;stroke-linejoin:round;stroke-width:1px;fill-opacity:0;fill-rule:evenodd}</style></defs><path d="M14.82 15.366s-.505 1.628-1.123 1.628H7.11c-.458 0-1.628-.31-1.628-1.169V7.109s3.256-2.41 3.256-5.482c.093-.16-.16-1.123 1.056-1.123 0 0 2.867.321 1.17 6.607h4.381s1.1-.093 1.1 1.056c.002-.003.002 1.648-1.625 7.199zM3.883 16.994H1.614s-.559 0-.559-.559L.511 7.644s.008-.533.551-.533h2.622s.668-.008.668.668v8.845s.005.37-.469.37z" class="cls-1"/></svg>