<svg xmlns="http://www.w3.org/2000/svg" preserveAspectRatio="xMidYMid" width="40" height="40" viewBox="0 0 40 40"><defs><style>.cls-1,.cls-4{fill:#3fa7ff}.cls-2{fill:#fff;fill-rule:evenodd}.cls-3,.cls-4{font-size:12px}.cls-4{font-family:&amp;quot;HYQiHei-FZS&amp;quot;}</style></defs><rect width="40" height="40" rx="5" ry="5" class="cls-1"/><path d="M27.5 36h-14a3 3 0 0 1-3-3v-1h20v1a3 3 0 0 1-3 3zm-6-3h-2a1 1 0 0 0 0 2h2a1 1 0 0 0 0-2zm-11-24h20v22h-20V9zm0-2a3 3 0 0 1 3-3h14a3 3 0 0 1 3 3v1h-20V7z" class="cls-2"/><text x="14.5" y="23" class="cls-3"><tspan class="cls-4">工</tspan></text></svg>