<svg xmlns="http://www.w3.org/2000/svg" preserveAspectRatio="xMidYMid" width="40" height="40" viewBox="0 0 40 40"><defs><style>.cls-1{fill:#ff84a4}.cls-2{fill:#fff;fill-rule:evenodd}</style></defs><rect width="40" height="40" rx="5" ry="5" class="cls-1"/><path d="M30.07 21.54a1.455 1.455 0 0 1-2.057 0L25.5 19.027V24c0 .054-.014.105-.016.159.393.143.764.365 1.08.68l2.097 2.097c.703.703.972 1.671.822 2.583a1.942 1.942 0 0 1-.526 1.777l-4.13 4.13a1.947 1.947 0 0 1-2.753-2.753l2.968-2.968-1.643-1.644A4.961 4.961 0 0 1 20.5 29a4.953 4.953 0 0 1-2.541-.716l-.277.277-1.396 1.396 2.75 2.75a2 2 0 1 1-2.829 2.828l-3.713-3.712c-.059-.049-.116-.081-.176-.141-.06-.06-.104-.13-.158-.194l-.196-.195a1.992 1.992 0 0 1-.504-1.947c.05-.694.327-1.376.858-1.907l2.121-2.121a2.985 2.985 0 0 1 1.124-.698c-.026-.205-.063-.408-.063-.62v-4.879l-2.561 2.561a1.5 1.5 0 1 1-2.121-2.121l6.243-6.243a1.49 1.49 0 0 1 .416-.277A4.96 4.96 0 0 1 20.5 12c1.315 0 2.503.519 3.396 1.349.038.031.085.045.121.081l6.053 6.053a1.455 1.455 0 0 1 0 2.057zM20.5 11a4 4 0 1 1 0-8 4 4 0 0 1 0 8z" class="cls-2"/></svg>