<svg xmlns="http://www.w3.org/2000/svg" preserveAspectRatio="xMidYMid" width="40" height="40" viewBox="0 0 40 40"><defs><style>.cls-1{fill:#ff84a4}.cls-2{fill:#fff;fill-rule:evenodd}</style></defs><rect width="40" height="40" rx="5" ry="5" class="cls-1"/><path d="M36.5 18.5c0 .877-.334 1.668-.866 2.282l.006.008L31.5 27c-.465.936-2.269 1.985-4 1 0 0-1.687-1-8.02-1-5.377 0-6.98 1-6.98 1-2.314 1.183-3.449-.322-4-1l-3.348-6.026c.072-.065.129-.144.196-.214A3.471 3.471 0 0 1 4.5 18.5c0-1.469.907-2.722 2.191-3.241C9.039 13.868 14.491 11 19.543 11c5.337 0 11.377 2.662 14.25 4.098A3.496 3.496 0 0 1 36.5 18.5zm-13 .5h-3v-3h-2v3h-3v2h3v3h2v-3h3v-2z" class="cls-2"/></svg>