<svg xmlns="http://www.w3.org/2000/svg" preserveAspectRatio="xMidYMid" width="40" height="40" viewBox="0 0 40 40"><defs><style>.cls-1{fill:#3fa7ff}.cls-2{fill:#fff;fill-rule:evenodd}</style></defs><rect width="40" height="40" rx="5" ry="5" class="cls-1"/><path d="M34.5 31h-28a2 2 0 0 1-2-2V11a2 2 0 0 1 2-2h10a3 3 0 0 0 3 3h2a3 3 0 0 0 3-3h10a2 2 0 0 1 2 2v18a2 2 0 0 1-2 2zM13 15a2.5 2.5 0 1 0 0 5 2.5 2.5 0 0 0 0-5zm3 6h-6a2.5 2.5 0 0 0-2.5 2.5c0 .565.195 1.081.511 1.5h9.978c.316-.419.511-.935.511-1.5A2.5 2.5 0 0 0 16 21zm16.5-6h-8a1 1 0 0 0 0 2h8a1 1 0 0 0 0-2zm0 4h-8a1 1 0 0 0 0 2h8a1 1 0 0 0 0-2zm0 4h-8a1 1 0 0 0 0 2h8a1 1 0 0 0 0-2zm-11-12h-2a2 2 0 1 1 0-4 1 1 0 0 1 2 0 2 2 0 1 1 0 4z" class="cls-2"/></svg>