<svg xmlns="http://www.w3.org/2000/svg" preserveAspectRatio="xMidYMid" width="40" height="40" viewBox="0 0 40 40"><defs><style>.cls-1{fill:#ffa53b}.cls-2,.cls-3{fill:#fff}.cls-2{fill-rule:evenodd}</style></defs><rect width="40" height="40" rx="5" ry="5" class="cls-1"/><path d="M36.3 15.813h-4.331v-2.407H36.3a1.2 1.2 0 0 1 1.2 1.2v.006a1.2 1.2 0 0 1-1.2 1.201zm-5.112 0H10.625v-2.407h20.563v2.407zM4.281 14.612v-.006c0-.662.538-1.2 1.2-1.2h4.332v2.407H5.481c-.662 0-1.2-.538-1.2-1.201z" class="cls-2"/><path d="M36.314 18.188h-.003a1.186 1.186 0 0 1-1.186-1.187v-4.815c0-.655.531-1.186 1.186-1.186h.003c.655 0 1.186.531 1.186 1.186v4.815c0 .656-.531 1.187-1.186 1.187zm-31.625 0h-.003A1.186 1.186 0 0 1 3.5 17.001v-4.815c0-.655.531-1.186 1.186-1.186h.003c.655 0 1.186.531 1.186 1.186v4.815c0 .656-.531 1.187-1.186 1.187z" class="cls-2"/><rect x="10.625" y="11.81" width="20.563" height="20.19" rx="2" ry="2" class="cls-3"/></svg>