<svg xmlns="http://www.w3.org/2000/svg" preserveAspectRatio="xMidYMid" width="39.219" height="42.62" viewBox="0 0 39.219 42.62"><defs><style>.cls-1{fill:#3cbffd;fill-rule:evenodd}</style></defs><path d="M39.218 38.478c0 2.396-1.748 4.139-4.15 4.139H4.173c-2.427 0-4.16-1.733-4.16-4.167V4.194C.013 1.751 1.762.01 4.207.009h3.827v2.254c-.975 0-1.929-.009-2.884.002a2.88 2.88 0 0 0-2.786 2.187c-.072.29-.104.597-.104.897-.005 10.65-.005 21.301-.003 31.951 0 1.84 1.245 3.075 3.089 3.075l28.513.001c1.881-.001 3.103-1.219 3.103-3.091V5.371c0-1.893-1.222-3.108-3.126-3.108h-2.614V.009c.23 0 .44-.002.651.001 1.272.013 2.551-.052 3.814.062 2.035.184 3.53 1.936 3.531 3.999.003 5.086.001 10.172.001 15.259l-.001 19.148zM7.541 26.529c.1-.009.201-.003.302-.003H31.36c.784 0 .925.139.925.917 0 .214.002.428-.001.642-.006.517-.187.694-.712.694H7.715c-.614 0-.778-.164-.781-.784-.002-.277-.008-.554.003-.83.016-.398.213-.601.604-.636zm-.6-12.106c.025-.36.225-.541.584-.562.1-.006.201-.002.302-.002h23.554c.801 0 .904.105.904.922 0 .239.006.478-.002.717-.015.398-.214.587-.618.601-.101.004-.202.001-.303.001H7.771c-.682 0-.837-.157-.838-.847 0-.277-.012-.555.008-.83zM26.296 2.262c-2.078.002-4.155.001-6.233.001h-6.12c-.573-.001-.751-.166-.767-.727a11.42 11.42 0 0 1 .003-.868c.025-.467.222-.652.691-.657.529-.006 1.058-.002 1.587-.002h10.69c.668 0 .83.159.831.813 0 .251.001.503-.001.754-.004.497-.187.686-.681.686z" class="cls-1"/></svg>