<svg xmlns="http://www.w3.org/2000/svg" preserveAspectRatio="xMidYMid" width="37.687" height="41.031" viewBox="0 0 37.687 41.031"><defs><style>.cls-1{fill:#e4e4e4;fill-rule:evenodd}</style></defs><path d="M34.088 21.372c.712-2.066.6-4.33.638-6.482.045-2.516.1-5.033.106-7.549.002-.734-.634-1.398-1.391-1.376-2.703.078-4.904.991-7.22 2.017-.355-1.605-1.052-3.073-2.119-4.439C23.007 2.141 20.74.004 18.788.004c-1.869 0-3.918 2.046-5.041 3.302-1.186 1.325-1.982 2.878-2.432 4.545-2.094-1.041-4.021-1.82-6.637-1.886-.759-.02-1.392.64-1.392 1.376 0 4.64-.76 10.057.784 14.524 1.946 5.633 7.489 9.033 13.249 9.676v8.07c0 1.849 2.732 1.849 2.732 0v-7.975c6.298-.281 12.002-4.354 14.037-10.264zM6.265 19.449c-.396-1.675-.196-3.607-.196-5.312V8.845c2.05.332 3.593 1.252 5.557 2.258.998.511 1.987-.14 2.094-1.189.298-2.925 2.158-5.461 4.705-6.903 1.135-.642 3.155 1.769 3.689 2.454.946 1.211 1.431 2.649 1.563 4.149-.034.194-.012.398.054.594.206 1.02 1.396 1.329 2.144.922 2.099-.905 3.967-1.912 6.165-2.276-.024 2.886-.091 5.772-.145 8.657-.125 6.57-5.927 10.995-12.218 11.386-6.099.378-12.005-3.497-13.412-9.448zm2.33 11.082c-2.716-1.041-7.233-.418-8.497 2.56-.695 1.636 2 2.343 2.683.732-.145.344.893-.555 1.439-.734 1.953-.64 3.635-.114 5.157 1.123 1.601 1.3 2.916 3.064 3.94 4.837.89 1.54 3.295.154 2.403-1.39-1.603-2.775-4.023-5.94-7.125-7.128zm28.98 2.937c-1.265-2.978-5.781-3.602-8.499-2.56-3.101 1.188-5.521 4.353-7.124 7.128-.892 1.544 1.513 2.93 2.403 1.389a19.504 19.504 0 0 1 3.94-4.837c1.374-1.217 2.825-1.55 4.628-1.251.571.095 1.2.296 1.664.653.202.154.513.703.303.21.684 1.611 3.379.904 2.685-.732z" class="cls-1"/></svg>