<svg xmlns="http://www.w3.org/2000/svg" preserveAspectRatio="xMidYMid" width="42.657" height="42.63" viewBox="0 0 42.657 42.63"><defs><style>.cls-1{fill:#3cbffd;fill-rule:evenodd}</style></defs><path d="M13.779 5.254c-.68-.971-1.719-2.364-2.799-3.483C9.798.547 8.916.001 8.119.001c-1.593 0-3.696 2.045-5.133 3.958C2.085 5.16-.011 8.264-.011 11.164c0 2.722 1.835 6.268 3.375 8.764 2.076 3.365 4.948 6.99 8.087 10.206l1.025 1.024c3.231 3.144 6.86 6.013 10.228 8.086 2.498 1.537 6.048 3.37 8.775 3.37 2.904 0 6.012-2.093 7.214-2.993 1.916-1.435 3.963-3.535 3.963-5.127 0-.795-.547-1.676-1.772-2.857-1.119-1.077-2.515-2.115-3.488-2.796-1.305-.913-2.674-1.758-3.854-2.38-1.871-.987-2.654-1.101-3.079-1.101-.824 0-1.546.44-2.145 1.306-.414.599-.73 1.33-1.036 2.037-.282.651-.578 1.312-.814 1.609l-.1.127-.157-.038c-.254-.059-1.248-.367-3.362-1.805-1.674-1.138-3.492-2.615-4.865-3.949-1.338-1.373-2.817-3.189-3.959-4.863-1.439-2.113-1.748-3.105-1.808-3.358l-.037-.157.126-.1c.319-.254 1.088-.587 1.598-.807.728-.315 1.456-.63 2.053-1.041.867-.598 1.308-1.318 1.308-2.143 0-.425-.115-1.206-1.102-3.075-.622-1.176-1.468-2.543-2.384-3.849zm1.396 7.046c-.066.098-.222.26-.589.478-.422.251-.984.493-1.479.706-.64.277-1.284.556-1.791.892-.792.524-1.186 1.157-1.17 1.882.007.372.03 1.503 2.192 4.673 1.209 1.773 2.776 3.696 4.191 5.146 1.47 1.432 3.396 2.996 5.17 4.204 3.172 2.158 4.307 2.181 4.679 2.189h.001c.753 0 1.376-.397 1.891-1.18.334-.506.611-1.145.879-1.762.232-.537.465-1.076.714-1.493.217-.363.379-.519.476-.587l.084-.058.1.016c.184.028.75.167 2.034.841 1.037.544 2.26 1.293 3.444 2.108 3.12 2.151 4.359 3.606 4.577 4.076l.041.088-.029.093c-.037.12-.207.568-.865 1.326-.608.7-1.452 1.461-2.379 2.143-2.123 1.563-4.316 2.495-5.867 2.495-1.728 0-4.536-1.118-7.704-3.067-3.242-1.996-6.744-4.764-9.86-7.796l-.002-.002-1.004-1.003c-3.039-3.115-5.81-6.613-7.808-9.849C3.15 15.695 2.03 12.89 2.03 11.164c0-1.549.934-3.74 2.498-5.86.684-.926 1.445-1.77 2.146-2.375.761-.659 1.209-.829 1.328-.865l.093-.029.088.042c.47.218 1.928 1.455 4.08 4.571a35.049 35.049 0 0 1 2.111 3.438c.674 1.281.814 1.848.842 2.033l.016.098-.057.083z" class="cls-1"/></svg>