<svg xmlns="http://www.w3.org/2000/svg" preserveAspectRatio="xMidYMid" width="40" height="40" viewBox="0 0 40 40"><defs><style>.cls-1{fill:#ffa53b}.cls-2{fill:#fff;fill-rule:evenodd}</style></defs><rect width="40" height="40" rx="5" ry="5" class="cls-1"/><path d="M29.5 35a6 6 0 1 1 0-12 6 6 0 0 1 0 12zm3.889-8.268a1 1 0 0 0-1.414 0l-3.536 3.536-1.414-1.414a.999.999 0 1 0-1.414 1.414l2.121 2.121a.999.999 0 0 0 1.414 0l4.243-4.243a.999.999 0 0 0 0-1.414zM23.5 21s-.522 1.084.836 1.895a7.978 7.978 0 0 0-.243 11.989A54.952 54.952 0 0 1 20.5 35c-6 0-13-.906-13-4 0-4.885 7.41-7.182 9-8 1.59-.818 1-2 1-2s-4-3.25-4-10 7-7 7-7 7 .25 7 7-4 10-4 10z" class="cls-2"/></svg>