<svg xmlns="http://www.w3.org/2000/svg" preserveAspectRatio="xMidYMid" width="17.656" height="16.907" viewBox="0 0 17.656 16.907"><defs><style>.cls-1{fill:#3cbffd;stroke:#aaa;stroke-linejoin:round;stroke-width:1px;fill-opacity:0;fill-rule:evenodd}</style></defs><path d="M4.121 16.402a.718.718 0 0 1-.42-.136.718.718 0 0 1-.284-.698l.836-4.868L.715 7.251a.717.717 0 0 1-.18-.733.709.709 0 0 1 .576-.484l4.89-.711L8.186.894a.711.711 0 0 1 1.279 0l2.187 4.429 4.889.711a.71.71 0 0 1 .394 1.217L13.398 10.7l.836 4.868a.715.715 0 0 1-1.036.752l-4.373-2.298-4.373 2.298a.7.7 0 0 1-.331.082z" class="cls-1"/></svg>