<svg xmlns="http://www.w3.org/2000/svg" preserveAspectRatio="xMidYMid" width="37.281" height="36.968" viewBox="0 0 37.281 36.968"><defs><style>.cls-1{fill:#e4e4e4;fill-rule:evenodd}</style></defs><path d="M35.872 10.03H25.305l4.093 4.093a1.244 1.244 0 0 1-1.758 1.758l-6.214-6.215a1.24 1.24 0 0 1 0-1.757l6.214-6.215a1.244 1.244 0 0 1 1.758 1.758l-4.093 4.093h10.567a1.242 1.242 0 1 1 0 2.485zM21.905 24.248c1.076.097 1.958-.784 2.937-1.959 1.076-1.272 5.09.098 7.733 2.252 2.546 1.958 4.699 3.916 4.699 5.385-.097 1.664-3.524 7.342-9.495 7.048-11.454-.685-23.985-16.642-26.432-22.32C-1.199 8.682-.122 4.472 4.185 1.046c4.602-3.622 8.126 3.231 10.084 5.58 2.056 2.35 1.077 5.482-.881 6.559-1.077.588-1.665 1.567.881 5.385 1.175 1.762 3.916 5.188 7.636 5.678zM11.626 11.619c1.86-1.175 1.272-2.35.489-3.622C9.961 4.57 7.808 1.438 5.654 3.004 4.088 4.179 3.109 5.353 2.619 7.507c-.293 1.664.392 4.797 1.566 7.245 2.448 4.796 13.216 18.893 23.789 19.579 1.86.098 3.329-.881 4.21-1.567 1.175-.881 1.664-1.664 2.251-2.838.294-.49-1.958-2.35-3.818-3.623-1.566-1.175-3.72-2.447-4.503-1.664-.587.587-1.86 2.252-4.013 2.35-3.916.097-9.399-5.679-11.161-9.399-1.272-2.643-.881-4.992.686-5.971z" class="cls-1"/></svg>