<svg xmlns="http://www.w3.org/2000/svg" preserveAspectRatio="xMidYMid" width="40" height="40" viewBox="0 0 40 40"><defs><style>.cls-1{fill:#3fa7ff}.cls-2{fill:#fff;fill-rule:evenodd}</style></defs><rect width="40" height="40" rx="5" ry="5" class="cls-1"/><path d="M34.5 32h-28a3 3 0 0 1-3-3V11a3 3 0 0 1 3-3h28a3 3 0 0 1 3 3v18a3 3 0 0 1-3 3zm-1-8a1 1 0 1 0 0-2 1 1 0 0 0 0 2zm0-4a1 1 0 1 0 0-2 1 1 0 0 0 0 2zm-4-9h-23v19h23V11zm4 1a2 2 0 1 0-.001 3.999A2 2 0 0 0 33.5 12zm-17.352 8.79c.087-.087.196-.13.294-.195a4.486 4.486 0 0 1 .975-4.88c1.171-1.171 2.825-1.541 4.318-1.146l-2.098 2.097c-.012.005-.041.526 0 1.083l.146 1.863 1.958.21c.32.01.921.16 1.068.016l2.098-2.097c.395 1.493.025 3.147-1.146 4.318a4.485 4.485 0 0 1-4.88.974c-.065.099-.108.208-.195.294l-3.621 4.255c-.7.701-2.153.384-2.854-.317-.701-.701-1.018-2.154-.317-2.855l4.254-3.62z" class="cls-2"/></svg>