<svg xmlns="http://www.w3.org/2000/svg" xmlns:xlink="http://www.w3.org/1999/xlink" preserveAspectRatio="xMidYMid" width="40" height="40" viewBox="0 0 40 40">
  <defs>
    <style>
      .cls-1 {
        fill: #ffa53b;
      }

      .cls-2 {
        fill: #fff;
        fill-rule: evenodd;
      }
    </style>
  </defs>
  <g>
    <rect width="40" height="40" rx="5" ry="5" class="cls-1"/>
    <path d="M11.600,6.530 L28.400,6.530 C31.493,6.530 34.000,8.918 34.000,11.863 L34.000,14.530 L6.000,14.530 L6.000,11.863 C6.000,8.918 8.507,6.530 11.600,6.530 Z" class="cls-2"/>
    <path d="M29.333,19.530 C29.333,19.530 24.667,17.478 24.667,14.947 C24.667,17.478 20.000,19.530 20.000,19.530 C20.000,19.530 15.333,17.478 15.333,14.947 C15.333,17.478 10.667,19.530 10.667,19.530 C10.667,19.530 6.000,17.478 6.000,14.947 L6.000,13.113 C6.000,10.582 8.089,8.530 10.667,8.530 C13.244,8.530 15.333,10.582 15.333,13.113 C15.333,10.582 17.423,8.530 20.000,8.530 C22.577,8.530 24.667,10.582 24.667,13.113 C24.667,10.582 26.756,8.530 29.333,8.530 C31.911,8.530 34.000,10.582 34.000,13.113 L34.000,14.947 C34.000,17.478 29.333,19.530 29.333,19.530 Z" class="cls-2"/>
    <path d="M29.000,33.530 L11.000,33.530 C9.343,33.530 8.000,32.187 8.000,30.530 L8.000,22.530 L8.092,22.530 C8.298,21.949 8.848,21.530 9.500,21.530 C10.152,21.530 10.702,21.949 10.908,22.530 L11.000,22.530 L11.000,28.530 C11.000,29.635 11.895,30.530 13.000,30.530 L27.000,30.530 C28.105,30.530 29.000,29.635 29.000,28.530 L29.000,22.530 L29.092,22.530 C29.298,21.949 29.848,21.530 30.500,21.530 C31.152,21.530 31.702,21.949 31.908,22.530 L32.000,22.530 L32.000,30.530 C32.000,32.187 30.657,33.530 29.000,33.530 Z" class="cls-2"/>
  </g>
</svg>
