<svg xmlns="http://www.w3.org/2000/svg" xmlns:xlink="http://www.w3.org/1999/xlink" preserveAspectRatio="xMidYMid" width="40" height="40" viewBox="0 0 40 40">
  <defs>
    <style>
      .cls-1 {
        fill: #ffa53b;
      }

      .cls-2 {
        fill: #fff;
        fill-rule: evenodd;
      }
    </style>
  </defs>
  <g>
    <rect width="40" height="40" rx="5" ry="5" class="cls-1"/>
    <path d="M25.000,35.530 L17.000,35.530 C15.343,35.530 14.000,34.187 14.000,32.530 L14.000,17.530 C14.000,14.349 16.124,11.668 19.029,10.816 C19.015,10.722 19.000,10.628 19.000,10.530 C19.000,9.425 19.895,8.530 21.000,8.530 C22.105,8.530 23.000,9.425 23.000,10.530 C23.000,10.628 22.985,10.722 22.971,10.816 C25.877,11.668 28.000,14.349 28.000,17.530 L28.000,32.530 C28.000,34.187 26.657,35.530 25.000,35.530 Z" class="cls-2"/>
    <path d="M28.989,12.390 C28.618,12.566 28.017,12.566 27.647,12.390 L22.277,8.839 C21.907,8.663 21.907,8.378 22.277,8.202 L27.647,4.651 C28.017,4.475 28.618,4.475 28.989,4.651 L28.989,12.390 Z" class="cls-2"/>
    <path d="M19.000,9.530 L19.000,9.806 C18.529,9.638 18.029,9.530 17.500,9.530 C15.015,9.530 13.000,11.545 13.000,14.030 L13.000,25.030 C13.000,25.201 13.032,25.364 13.050,25.530 L13.000,25.530 C13.000,26.082 12.552,26.530 12.000,26.530 C11.448,26.530 11.000,26.082 11.000,25.530 C11.000,25.495 11.017,25.464 11.020,25.430 C11.011,25.297 11.000,25.165 11.000,25.030 L11.000,14.030 C11.000,10.440 13.910,7.530 17.500,7.530 C17.867,7.530 18.223,7.573 18.573,7.634 C18.704,7.571 18.846,7.530 19.000,7.530 C19.552,7.530 20.000,7.978 20.000,8.530 C20.000,9.082 19.552,9.530 19.000,9.530 Z" class="cls-2"/>
  </g>
</svg>
