<svg xmlns="http://www.w3.org/2000/svg" xmlns:xlink="http://www.w3.org/1999/xlink" preserveAspectRatio="xMidYMid" width="40" height="40" viewBox="0 0 40 40">
  <defs>
    <style>
      .cls-1 {
        fill: #2dcf90;
      }

      .cls-1, .cls-2 {
        fill-rule: evenodd;
      }

      .cls-2 {
        fill: #fff;
      }
    </style>
  </defs>
  <g>
    <path d="M33.341,-0.012 L6.678,-0.012 C3.012,-0.012 0.013,2.989 0.013,6.658 L0.013,33.338 C0.013,37.007 3.012,40.008 6.678,40.008 L33.341,40.008 C37.007,40.008 40.007,37.007 40.007,33.338 L40.007,6.658 C40.007,2.989 37.007,-0.012 33.341,-0.012 Z" class="cls-1"/>
    <path d="M33.781,31.500 L5.781,31.500 C4.677,31.500 3.781,30.605 3.781,29.500 L3.781,11.500 C3.781,10.395 4.677,9.500 5.781,9.500 L33.781,9.500 C34.886,9.500 35.781,10.395 35.781,11.500 L35.781,29.500 C35.781,30.605 34.886,31.500 33.781,31.500 ZM18.781,13.500 L6.781,13.500 L6.781,15.500 L18.781,15.500 L18.781,13.500 ZM18.781,19.500 L6.781,19.500 L6.781,21.500 L18.781,21.500 L18.781,19.500 ZM27.281,12.500 C25.901,12.500 24.781,13.619 24.781,15.000 C24.781,16.381 25.901,17.500 27.281,17.500 C28.662,17.500 29.781,16.381 29.781,15.000 C29.781,13.619 28.662,12.500 27.281,12.500 ZM30.223,16.884 C29.600,17.854 28.519,18.500 27.281,18.500 C26.044,18.500 24.962,17.854 24.340,16.884 C23.415,17.395 22.781,18.369 22.781,19.500 C22.781,21.157 24.124,22.500 25.781,22.500 L28.781,22.500 C30.438,22.500 31.781,21.157 31.781,19.500 C31.781,18.369 31.148,17.395 30.223,16.884 ZM32.781,25.500 L6.781,25.500 L6.781,27.500 L32.781,27.500 L32.781,25.500 Z" class="cls-2"/>
  </g>
</svg>
