<svg xmlns="http://www.w3.org/2000/svg" preserveAspectRatio="xMidYMid" width="44" height="44" viewBox="0 0 44 44"><defs><style>.cls-1{fill:#19bdff;fill-rule:evenodd}</style></defs><path d="M44 22c0 12.15-9.85 22-22 22S0 34.15 0 22 9.85 0 22 0c4.669 0 8.987 1.469 12.548 3.949.029-.002.054-.017.084-.017a1.221 1.221 0 0 1 0 2.442c-.427 0-.785-.233-1.003-.566l-.004.009A19.829 19.829 0 0 0 22 2.056C10.985 2.056 2.056 10.985 2.056 22c0 11.015 8.929 19.944 19.944 19.944 11.015 0 19.944-8.929 19.944-19.944 0-3.412-.88-6.608-2.392-9.415a1.197 1.197 0 0 1-.461-.93c0-.674.552-1.22 1.234-1.22.681 0 1.233.546 1.233 1.22 0 .082-.031.153-.046.23A21.836 21.836 0 0 1 44 22z" class="cls-1"/><path d="M29.813 10.897l-5.757 9.869h-3.29l-5.757-9.869h2.468l4.934 8.459 4.935-8.459h2.467z" class="cls-1"/><path d="M21.589 19.944h2.056v13.981h-2.056V19.944z" class="cls-1"/><path d="M15.009 20.766h15.627v2.056H15.009v-2.056zm0 4.935h15.627v2.056H15.009v-2.056z" class="cls-1"/></svg>