<svg xmlns="http://www.w3.org/2000/svg" viewBox="0 0 46 46"><path fill="#FFF" d="M23 2.4c4.4 0 8.7 1.7 12 5 6.6 6.6 6.6 17.4 0 24l-12 12-12-12c-6.6-6.6-6.6-17.4 0-24 3.3-3.3 7.6-5 12-5m0-1c-4.8 0-9.3 1.9-12.7 5.3-7 7-7 18.4 0 25.5l12 12 .7.7.7-.7 12-12c7-7 7-18.4 0-25.5-3.4-3.4-7.9-5.3-12.7-5.3z"/><circle fill="#FFF" cx="23" cy="19.4" r="9"/><path fill="#3CBFFD" d="M35 7.4C28.4.8 17.6.8 11 7.4c-6.6 6.6-6.6 17.4 0 24l12 12 12-12c6.7-6.6 6.7-17.4 0-24zm-12 21c-5 0-9-4-9-9s4-9 9-9 9 4 9 9-4 9-9 9z"/></svg>