<?xml version="1.0" encoding="utf-8"?>
<!-- Generator: Adobe Illustrator 15.0.0, SVG Export Plug-In . SVG Version: 6.00 Build 0)  -->
<!DOCTYPE svg PUBLIC "-//W3C//DTD SVG 1.1//EN" "http://www.w3.org/Graphics/SVG/1.1/DTD/svg11.dtd">
<svg version="1.1" id="图层_1" xmlns="http://www.w3.org/2000/svg" xmlns:xlink="http://www.w3.org/1999/xlink" x="0px" y="0px"
	 width="39.219px" height="42.621px" viewBox="0 0 39.219 42.621" enable-background="new 0 0 39.219 42.621" xml:space="preserve">
<path fill="#D9D9D9" d="M39.218,38.478c0,2.396-1.748,4.139-4.15,4.139c-10.299,0-20.597,0-30.895,0c-2.427,0-4.16-1.732-4.16-4.166
	c-0.001-11.42-0.001-22.838,0-34.257c0-2.443,1.749-4.184,4.194-4.185c1.26,0,2.52,0,3.827,0v2.254c-0.976,0-1.93-0.009-2.885,0.002
	C3.818,2.28,2.68,3.171,2.364,4.452C2.292,4.742,2.26,5.049,2.26,5.349C2.255,15.999,2.255,26.65,2.257,37.3
	c0,1.84,1.245,3.074,3.089,3.074c9.504,0.002,19.008,0.002,28.513,0.002c1.882-0.002,3.104-1.219,3.104-3.092
	c0-10.638,0-21.276,0-31.914c0-1.893-1.222-3.108-3.126-3.108c-0.866,0-1.732,0-2.614,0V0.009c0.23,0,0.44-0.002,0.651,0.001
	c1.271,0.013,2.551-0.052,3.813,0.063c2.035,0.184,3.53,1.936,3.531,3.999c0.003,5.086,0.001,10.172,0.001,15.259
	C39.219,25.712,39.219,32.095,39.218,38.478z M7.541,26.529c0.1-0.009,0.201-0.003,0.302-0.003c7.839-0.001,15.678-0.001,23.517,0
	c0.784,0,0.926,0.14,0.926,0.917c0,0.215,0.002,0.428-0.001,0.643c-0.007,0.517-0.188,0.693-0.713,0.693
	c-3.994,0.002-7.989,0-11.984,0c-3.957,0-7.914,0-11.872,0c-0.614,0-0.778-0.164-0.781-0.783c-0.002-0.277-0.008-0.555,0.003-0.83
	C6.953,26.767,7.15,26.564,7.541,26.529z M6.941,14.423c0.025-0.36,0.226-0.541,0.584-0.562c0.101-0.006,0.201-0.002,0.303-0.002
	c7.852,0,15.702,0,23.554,0c0.801,0,0.904,0.105,0.904,0.922c0,0.239,0.006,0.478-0.002,0.717c-0.016,0.398-0.215,0.587-0.618,0.601
	c-0.102,0.004-0.202,0.001-0.304,0.001c-3.919,0-7.838,0-11.758,0c-3.943,0-7.889,0-11.833,0c-0.682,0-0.837-0.157-0.838-0.847
	C6.933,14.976,6.921,14.698,6.941,14.423z M26.296,2.262c-2.078,0.002-4.155,0.001-6.233,0.001c-2.04,0-4.08,0-6.12,0
	c-0.572-0.001-0.751-0.166-0.767-0.727c-0.008-0.289-0.011-0.579,0.003-0.868c0.025-0.467,0.222-0.652,0.691-0.657
	c0.528-0.006,1.058-0.002,1.587-0.002c3.563,0,7.127,0,10.689,0c0.668,0,0.83,0.159,0.831,0.813c0,0.251,0.001,0.503-0.001,0.754
	C26.973,2.073,26.79,2.262,26.296,2.262z"/>
</svg>
