<?xml version="1.0" encoding="utf-8"?>
<!-- Generator: Adobe Illustrator 15.0.0, SVG Export Plug-In . SVG Version: 6.00 Build 0)  -->
<!DOCTYPE svg PUBLIC "-//W3C//DTD SVG 1.1//EN" "http://www.w3.org/Graphics/SVG/1.1/DTD/svg11.dtd">
<svg version="1.1" id="图层_1" xmlns="http://www.w3.org/2000/svg" xmlns:xlink="http://www.w3.org/1999/xlink" x="0px" y="0px"
	 width="44px" height="44px" viewBox="0 0 44 44" enable-background="new 0 0 44 44" xml:space="preserve">
<g>
	<path fill="#D9D9D9" d="M44,22c0,12.15-9.85,22-22,22C9.85,44,0,34.15,0,22C0,9.85,9.85,0,22,0c4.669,0,8.986,1.469,12.548,3.949
		c0.029-0.002,0.054-0.017,0.084-0.017c0.675,0,1.222,0.547,1.222,1.221c0,0.674-0.547,1.221-1.222,1.221
		c-0.427,0-0.784-0.233-1.003-0.566c-0.001,0.003-0.003,0.006-0.004,0.009C30.35,3.46,26.343,2.056,22,2.056
		C10.985,2.056,2.056,10.985,2.056,22c0,11.016,8.929,19.943,19.944,19.943c11.016,0,19.943-8.928,19.943-19.943
		c0-3.412-0.879-6.608-2.392-9.415c-0.274-0.224-0.461-0.55-0.461-0.93c0-0.674,0.552-1.22,1.234-1.22
		c0.681,0,1.233,0.546,1.233,1.22c0,0.082-0.031,0.153-0.047,0.229C43.089,14.915,44,18.347,44,22z"/>
	<path fill="#D9D9D9" d="M29.813,10.897l-5.756,9.869h-0.822h-1.646h-0.823l-5.757-9.869h2.468l4.934,8.459l4.935-8.459H29.813z"/>
	<path fill="#D9D9D9" d="M21.589,19.944h2.056v13.981h-2.056V19.944z"/>
	<path fill="#D9D9D9" d="M15.009,20.766h15.628v2.056H15.009V20.766z"/>
	<path fill="#D9D9D9" d="M15.009,25.701h15.628v2.056H15.009V25.701z"/>
</g>
</svg>
