<?xml version="1.0" encoding="utf-8"?>
<!-- Generator: Adobe Illustrator 18.1.0, SVG Export Plug-In . SVG Version: 6.00 Build 0)  -->
<svg version="1.1" id="图层_1" xmlns="http://www.w3.org/2000/svg" xmlns:xlink="http://www.w3.org/1999/xlink" x="0px" y="0px"
	 viewBox="0 0 48 48" enable-background="new 0 0 48 48" xml:space="preserve">
<path d="M38.4,41.5c-0.5,0-0.9-0.4-0.9-0.9c0-3.8-1.5-7.3-4.1-9.9c-0.3-0.3-0.3-0.9,0-1.2c0.3-0.3,0.9-0.3,1.2,0c3,3,4.6,7,4.6,11.2
	C39.3,41.1,38.9,41.5,38.4,41.5L38.4,41.5z M23.5,26.6c0,0-0.1,0-0.1,0c-3.7,0-7.1,1.5-9.8,4.1c-2.6,2.7-4.1,6.2-4.1,9.9
	c0,0.5-0.4,0.9-0.9,0.9c-0.5,0-0.9-0.4-0.9-0.9c0-4.2,1.6-8.2,4.6-11.2c1.9-1.9,4.1-3.2,6.5-3.9C15.4,23.8,13,20.2,13,16
	c0-5.8,4.7-10.5,10.5-10.5S34,10.2,34,16C34,21.9,29.3,26.6,23.5,26.6L23.5,26.6z M23.5,7.3c-4.8,0-8.8,3.9-8.8,8.8
	c0,4.8,3.8,8.7,8.6,8.8c0,0,0.1,0,0.1,0c0,0,0,0,0.1,0c4.8,0,8.7-4,8.7-8.8C32.3,11.2,28.3,7.3,23.5,7.3L23.5,7.3z M23.5,7.3"/>
</svg>
