<?xml version="1.0" encoding="utf-8"?>
<!-- Generator: Adobe Illustrator 18.1.0, SVG Export Plug-In . SVG Version: 6.00 Build 0)  -->
<svg version="1.1" id="图层_1" xmlns="http://www.w3.org/2000/svg" xmlns:xlink="http://www.w3.org/1999/xlink" x="0px" y="0px"
	 viewBox="0 0 48 48" enable-background="new 0 0 48 48" xml:space="preserve">
<path d="M38.6,24.9v-3.6c0-0.5,0.4-0.9,0.9-0.9c0.5,0,0.9,0.4,0.9,0.9v3.6l0,0v8c0,2.5-2,4.5-4.5,4.5H11c-2.5,0-4.5-2-4.5-4.5V14.1
	c0-2.5,2-4.5,4.5-4.5h24.9c0.7,0,1.3,0.2,1.9,0.4c0,0-0.4-0.2-0.1,0c0.3,0.2,0.3,0,0.4,0.1c1.4,0.8,2.4,2.3,2.4,4v2.7l0,0
	c0,0.5-0.4,0.9-0.9,0.9c-0.5,0-0.9-0.4-0.9-0.9v-0.9v-0.9c0-0.9-0.3-1.7-0.9-2.3l-10,10.1l7.3,7.3c0.2,0.2,0,0.6-0.3,0.9
	c-0.4,0.4-0.8,0.5-0.9,0.3L26.4,24c-1.7,1.6-4.3,1.7-6,0.2l-7.4,7.4c-0.2,0.2-0.6,0-1-0.4s-0.5-0.8-0.4-1l7.4-7.4l-10-10
	c-0.4,0.6-0.7,1.3-0.7,2.1v17c0,2,1.6,3.6,3.6,3.6h23c2,0,3.6-1.6,3.6-3.6v-6.2V24.9L38.6,24.9z M20.7,22.1c1.4,1.4,3.7,1.4,5.1,0
	l10.4-10.4c-0.4-0.2-0.8-0.2-1.2-0.2H12c-0.6,0-1.1,0.1-1.6,0.4L20.7,22.1L20.7,22.1z M20.7,22.1"/>
</svg>
