<?xml version="1.0" encoding="utf-8"?>
<!-- Generator: Adobe Illustrator 18.1.0, SVG Export Plug-In . SVG Version: 6.00 Build 0)  -->
<svg version="1.1" id="图层_1" xmlns="http://www.w3.org/2000/svg" xmlns:xlink="http://www.w3.org/1999/xlink" x="0px" y="0px"
	 viewBox="0 0 48 48" enable-background="new 0 0 48 48" xml:space="preserve">
<path d="M32.9,18.4h-18V15c0-4.3,3.6-7.7,8.3-7.7c4.6,0,8,3.3,8,7.7v1.7c0,0.5,0.4,0.9,0.9,0.9c0.5,0,0.9-0.4,0.9-0.9V15
	c0-5.3-4.1-9.4-9.6-9.4h-0.1c-5.6,0.1-10,4.2-10,9.4v3.5c-2.9,0.4-5.1,2.9-5.1,5.9v11c0,3.3,2.7,6,6,6h18.9c3.3,0,6-2.7,6-6v-11
	C38.9,21.1,36.2,18.4,32.9,18.4L32.9,18.4L32.9,18.4z M37.2,35.4c0,2.4-1.9,4.3-4.3,4.3H14.1c-2.4,0-4.3-1.9-4.3-4.3v-11
	c0-2.4,1.9-4.3,4.3-4.3h18.9c2.4,0,4.3,1.9,4.3,4.3V35.4L37.2,35.4L37.2,35.4z M23.5,23.5c-2.8,0-5.1,2.3-5.1,5.1
	c0,2.5,1.9,4.7,4.3,5.1c0,0,0,0.1,0,0.1v2.6c0,0.5,0.4,0.9,0.9,0.9c0.5,0,0.9-0.4,0.9-0.9v-2.6c0,0,0-0.1,0-0.1
	c2.4-0.4,4.3-2.5,4.3-5.1C28.6,25.9,26.3,23.5,23.5,23.5L23.5,23.5L23.5,23.5z M23.5,32.1c-1.9,0-3.4-1.5-3.4-3.4
	c0-1.9,1.5-3.4,3.4-3.4c1.9,0,3.4,1.5,3.4,3.4C26.9,30.6,25.4,32.1,23.5,32.1L23.5,32.1L23.5,32.1z M23.5,32.1"/>
</svg>
