<?xml version="1.0" encoding="utf-8"?>
<!-- Generator: Adobe Illustrator 18.1.0, SVG Export Plug-In . SVG Version: 6.00 Build 0)  -->
<svg version="1.1" xmlns="http://www.w3.org/2000/svg" xmlns:xlink="http://www.w3.org/1999/xlink" x="0px" y="0px"
	 viewBox="0 0 46 46" enable-background="new 0 0 46 46" xml:space="preserve">
<g id="图层_2" display="none">
	<rect display="inline" fill="#E6E6E6" width="46" height="45.9"/>
</g>
<g id="图层_1">
	<path fill="#FFFFFF" d="M23,2.4c4.4,0,8.7,1.7,12,5c6.6,6.6,6.6,17.4,0,24l-12,12l-12-12c-6.6-6.6-6.6-17.4,0-24
		C14.3,4.1,18.6,2.4,23,2.4 M23,1.4c-4.8,0-9.3,1.9-12.7,5.3c-7,7-7,18.4,0,25.5l12,12l0.7,0.7l0.7-0.7l12-12c7-7,7-18.4,0-25.5
		C32.3,3.3,27.8,1.4,23,1.4L23,1.4z"/>
</g>
<g id="图层_4">
	<circle fill="#FFFFFF" cx="23" cy="19.4" r="9"/>
</g>
<g id="图层_3">
	<g>
		<path fill="#3CBFFD" d="M35,7.4c-6.6-6.6-17.4-6.6-24,0c-6.6,6.6-6.6,17.4,0,24l12,12l12-12C41.7,24.8,41.7,14,35,7.4z M23,28.4
			c-5,0-9-4-9-9s4-9,9-9s9,4,9,9S28,28.4,23,28.4z"/>
	</g>
</g>
</svg>
