<svg id="组_1" data-name="组 1" xmlns="http://www.w3.org/2000/svg" xmlns:xlink="http://www.w3.org/1999/xlink" width="34.75" height="33" viewBox="0 0 69.5 66">
  <defs>
    <style>
      .cls-1, .cls-2, .cls-3 {
        fill-rule: evenodd;
      }

      .cls-1 {
        opacity: 0.25;
        fill: url(#linear-gradient);
      }

      .cls-2 {
        fill: #fff;
        stroke: #955ae8;
        stroke-linejoin: round;
        stroke-width: 1px;
      }

      .cls-3 {
        fill: #03e2ff;
        filter: url(#filter);
      }
    </style>
    <linearGradient id="linear-gradient" x1="1089.5" y1="476" x2="1089.5" y2="436" gradientUnits="userSpaceOnUse">
      <stop offset="0"/>
      <stop offset="1" stop-color="#020202" stop-opacity="0"/>
    </linearGradient>
    <filter id="filter" x="1067" y="427" width="29.47" height="37.094" filterUnits="userSpaceOnUse">
      <feFlood result="flood" flood-color="#955ae8"/>
      <feComposite result="composite" operator="in" in2="SourceGraphic"/>
      <feBlend result="blend" in2="SourceGraphic"/>
    </filter>
  </defs>
  <path id="形状_12_拷贝_26" data-name="形状 12 拷贝 26" class="cls-1" d="M1095.38,435.988c20.45,0,30.3,11.081,23.44,21.834-6.08,9.518-21.81,14.969-35.19,14.969-14.16,0-25.63-6.076-25.63-14.969C1058,447.447,1074.3,435.988,1095.38,435.988ZM1082.9,476l-2.05-3.316h6.23L1082.9,476" transform="translate(-1051.5 -415.5)"/>
  <path id="形状_12_拷贝_26-2" data-name="形状 12 拷贝 26" class="cls-2" d="M1080.96,418.766a26.581,26.581,0,1,1-26.21,26.578A26.393,26.393,0,0,1,1080.96,418.766Zm0.31,60.2-3.18-7.268h6.36l-3.18,7.268" transform="translate(-1051.5 -415.5)"/>
  <path id="形状_31" data-name="形状 31" class="cls-3" d="M1090,462h-20c-0.13,0-1,.277-1-1V444c0-.834.8-0.71,1-1,0.08,0.009,19.92.009,20,0,0.2,0.29,1,.166,1,1v7a4.341,4.341,0,0,0,1,0c0.49,0-.12-0.009,1,0v-7c0-1-.6-1.348-1-2a3.76,3.76,0,0,0,1-2V429c0-1.464-1.59-2-2.94-2H1070c-1.36,0-3,.536-3,2v11a3.76,3.76,0,0,0,1,2c-0.4.652-1,1-1,2v18c0,2.106,1.6,2,3,2h20c0.02-1.063,0-.509,0-1A8.291,8.291,0,0,1,1090,462Zm-21-32a1.226,1.226,0,0,1,1-1h20a1.226,1.226,0,0,1,1,1v10a2.332,2.332,0,0,1-1,1h-20a2.6,2.6,0,0,1-1.12-1.007Zm2,18v8a1,1,0,0,0,2,0v-8A1,1,0,0,0,1071,448Zm1-9a0.949,0.949,0,0,0,1-1v-6a0.89,0.89,0,0,0-1-1,1.091,1.091,0,0,0-1,1v6A1.032,1.032,0,0,0,1072,439Zm24,21-4-3a2.122,2.122,0,0,0-.12-3.039A3.137,3.137,0,0,0,1089,453c-0.27,0,.81,1.809,1,2a0.675,0.675,0,0,1,.18.457A4.81,4.81,0,0,1,1090,457a5.379,5.379,0,0,1-1.6.235A1.229,1.229,0,0,1,1088,457c-0.15-.15-2-1.277-2-1a3.277,3.277,0,0,0,1,3c0.98,0.983,1.93.767,3,0,0.56,0.62,3,4,3,4,0.39,0.39,2.19.813,3,0A2.7,2.7,0,0,0,1096,460Zm-1.98,2.239a0.963,0.963,0,1,1,.97-0.963A0.962,0.962,0,0,1,1094.02,462.239Z" transform="translate(-1051.5 -415.5)"/>
</svg>
