<?xml version="1.0" encoding="utf-8"?>
<!-- Generator: Adobe Illustrator 18.1.0, SVG Export Plug-In . SVG Version: 6.00 Build 0)  -->
<svg version="1.1" id="图层_1" xmlns="http://www.w3.org/2000/svg" xmlns:xlink="http://www.w3.org/1999/xlink" x="0px" y="0px"
	 viewBox="0 0 42 42" enable-background="new 0 0 42 42" xml:space="preserve">
<g id="图层_3">
	<g>
		<g>
			<path fill="#3CBFFD" d="M21.1,1C14.7,1,9.4,6.3,9.4,12.6c0,4.6,2.7,8.7,6.7,10.5C8.9,25.3,3.5,32.1,3.5,40c0,0.5,0.4,0.9,0.9,0.9
				c0.5,0,0.9-0.4,0.9-0.9c0.1-8.7,7.1-15.7,15.8-15.7c6.4,0,11.6-5.3,11.6-11.6S27.4,1,21.1,1z M21.1,22.4c-5.4,0-9.8-4.4-9.8-9.8
				s4.4-9.8,9.8-9.8s9.8,4.4,9.8,9.8S26.4,22.4,21.1,22.4z M31.7,26.1c-0.4-0.3-1-0.2-1.3,0.2c-0.3,0.4-0.2,1,0.2,1.3
				c4,3,6.2,7.6,6.2,12.5c0,0.5,0.4,0.9,0.9,0.9c0.5,0,0.9-0.4,0.9-0.9C38.6,34.5,36.1,29.5,31.7,26.1z"/>
		</g>
	</g>
</g>
</svg>
