<svg xmlns="http://www.w3.org/2000/svg" xmlns:xlink="http://www.w3.org/1999/xlink" preserveAspectRatio="xMidYMid" width="72" height="72.313" viewBox="0 0 72 72.313">
  <defs>
    <style>
      .cls-1 {
        fill: #fff;
        stroke: #b0b0b0;
        stroke-width: 1px;
      }

      .cls-2 {
        fill: #3fbef9;
        fill-rule: evenodd;
      }
    </style>
  </defs>
  <g>
    <rect y="0.5" width="72" height="71.813" rx="10" ry="10" class="cls-1"/>
    <path d="M47.976,25.165 C45.736,25.165 43.952,23.348 43.952,21.159 C43.952,23.395 42.170,25.165 39.976,25.165 C37.782,25.165 35.999,23.348 35.999,21.159 C35.999,23.395 34.170,25.165 31.975,25.165 C29.781,25.165 27.998,23.348 27.998,21.159 C27.998,23.395 26.170,25.165 23.976,25.165 C21.781,25.165 19.998,23.348 19.998,21.159 L22.526,14.077 L49.473,14.077 L51.999,21.159 C51.999,23.395 50.170,25.165 47.976,25.165 ZM46.947,12.371 L25.053,12.371 C24.276,12.371 23.198,12.251 23.198,11.209 C23.198,9.829 24.276,9.812 25.053,9.812 L46.947,9.812 C47.724,9.812 48.799,9.859 48.799,11.209 C48.799,12.260 47.724,12.371 46.947,12.371 ZM28.019,25.399 C28.650,26.991 30.196,28.118 31.999,28.118 C33.820,28.118 35.382,26.991 36.020,25.399 C36.651,26.991 38.197,28.118 39.999,28.118 C41.801,28.118 43.346,26.991 43.977,25.399 C44.615,26.991 46.178,28.118 47.999,28.118 C48.428,28.118 48.975,28.090 49.473,27.724 L49.473,37.106 C49.473,37.945 48.612,38.812 47.789,38.812 L24.210,38.812 C23.388,38.812 22.526,37.945 22.526,37.106 L22.526,27.724 C23.135,28.049 23.569,28.118 23.998,28.118 C25.820,28.118 27.382,26.991 28.019,25.399 Z" class="cls-2"/>
    <path d="M41.441,52.171 C41.357,55.951 40.356,59.213 38.438,61.957 L37.577,61.180 C39.397,58.730 40.314,55.601 40.328,51.793 L40.328,45.388 L47.258,45.388 C46.880,44.422 46.460,43.561 45.998,42.805 L47.195,42.595 C47.629,43.435 48.028,44.366 48.392,45.388 L55.028,45.388 L55.028,52.171 L41.441,52.171 ZM53.873,46.522 L41.441,46.522 L41.441,51.058 L53.873,51.058 L53.873,46.522 ZM29.618,48.517 L34.385,48.517 L34.385,59.731 C34.385,61.089 33.818,61.768 32.684,61.768 L30.563,61.768 L30.269,60.718 L32.327,60.760 C32.957,60.760 33.272,60.340 33.272,59.500 L33.272,49.546 L19.370,49.546 L19.370,61.705 L18.257,61.705 L18.257,48.517 L22.793,48.517 C22.457,47.481 22.037,46.536 21.533,45.682 L17.102,45.682 L17.102,44.590 L25.838,44.590 C25.544,43.890 25.250,43.260 24.956,42.700 L26.174,42.511 C26.496,43.113 26.790,43.806 27.056,44.590 L35.582,44.590 L35.582,45.682 L30.983,45.682 C30.535,46.816 30.080,47.761 29.618,48.517 ZM22.793,45.682 C23.255,46.606 23.640,47.551 23.948,48.517 L28.400,48.517 C28.890,47.635 29.331,46.690 29.723,45.682 L22.793,45.682 ZM25.145,50.932 C23.913,52.374 22.394,53.641 20.588,54.733 L19.874,53.809 C21.624,52.787 23.108,51.583 24.326,50.197 L25.145,50.932 ZM28.211,50.155 C30.017,51.443 31.494,52.703 32.642,53.935 L31.802,54.754 C30.738,53.536 29.289,52.255 27.455,50.911 L28.211,50.155 ZM30.080,59.227 L22.583,59.227 L22.583,54.334 L30.080,54.334 L30.080,59.227 ZM28.967,55.363 L23.696,55.363 L23.696,58.198 L28.967,58.198 L28.967,55.363 Z" class="cls-2"/>
  </g>
</svg>
