<?xml version="1.0" encoding="utf-8"?>
<!-- Generator: Adobe Illustrator 18.1.0, SVG Export Plug-In . SVG Version: 6.00 Build 0)  -->
<svg version="1.1" xmlns="http://www.w3.org/2000/svg" xmlns:xlink="http://www.w3.org/1999/xlink" x="0px" y="0px"
	 viewBox="0 0 58 58" enable-background="new 0 0 58 58" xml:space="preserve">
<g id="图层_2" display="none">
	<rect display="inline" fill="#FFFFFF" stroke="#00FFFF" stroke-width="0.2" stroke-miterlimit="10" width="58" height="58"/>
</g>
<g id="图层_1">
	<circle fill="#49C3FC" cx="29" cy="29" r="29"/>
	<g>
		<g>
			<path fill="#FCFCFC" d="M24.2,24.7c-0.3-0.3-0.7-0.5-1.2-0.5c-0.4,0-0.9,0.2-1.2,0.5c-0.3,0.3-0.5,0.7-0.5,1.2
				c0,0.4,0.2,0.9,0.5,1.2c0.3,0.3,0.7,0.5,1.2,0.5c0.4,0,0.9-0.2,1.2-0.5c0.3-0.3,0.5-0.7,0.5-1.2C24.7,25.4,24.5,25,24.2,24.7z
				 M31.5,26.8c0-0.6,0.5-1.1,1.1-1.1c0.6,0,1.1,0.5,1.1,1.1c0,0.3,0.3,0.6,0.6,0.6c0.3,0,0.6-0.3,0.6-0.6c0-1.2-1-2.2-2.2-2.2
				c-1.2,0-2.2,1-2.2,2.2c0,0.3,0.3,0.6,0.6,0.6C31.2,27.4,31.5,27.2,31.5,26.8z M28.3,35.9c-8.6,0-11.1,4.1-11.2,4.3
				c0,0-0.3,0.6,0.3,1.1c0.6,0.5,1.2-0.2,1.2-0.2l0,0c0,0,0.5-0.9,2-1.7c2.4-1.4,5.5-1.7,7.7-1.7c3.9,0,6.4,0.9,7.7,1.7
				c1.4,0.8,2,1.7,2,1.7l0,0c0,0,0.5,0.6,1.2,0.2c0.7-0.4,0.4-1.1,0.4-1.1C39.5,40,37,35.9,28.3,35.9z M41.8,19.1h-3
				c-0.6-1-1.3-2-2.1-2.9c-1.2-1.2-2.5-2.1-4-2.7c-1.5-0.7-3.2-1-4.9-1c-1.7,0-3.3,0.3-4.9,1c-1.5,0.6-2.8,1.5-4,2.7
				c-1.2,1.2-2.1,2.5-2.7,4c-0.7,1.5-1,3.2-1,4.9c0,4.2,2.1,8.1,5.5,10.4c0.2,0.1,0.3,0.2,0.5,0.2c0.3,0,0.6-0.1,0.7-0.4
				c0.3-0.4,0.2-1-0.2-1.3c-3-2-4.7-5.3-4.7-8.9c0-1.5,0.3-2.9,0.9-4.2h19.8c0.6,1.3,0.9,2.7,0.9,4.2c0,3.5-1.8,6.9-4.7,8.9
				c-0.4,0.3-0.5,0.8-0.2,1.3c0.3,0.4,0.8,0.5,1.3,0.2c3.4-2.3,5.5-6.2,5.5-10.4c0-1.4-0.2-2.9-0.7-4.2h2.2c0.5,0,0.9-0.4,0.9-0.9
				S42.3,19.1,41.8,19.1z M18.9,19.1c0.4-0.6,0.8-1.1,1.3-1.6c2-2,4.7-3.1,7.6-3.1c2.9,0,5.6,1.1,7.6,3.1c0.5,0.5,0.9,1,1.3,1.6
				H18.9z"/>
		</g>
	</g>
</g>
</svg>
