<?xml version="1.0" encoding="utf-8"?>
<!-- Generator: Adobe Illustrator 18.1.0, SVG Export Plug-In . SVG Version: 6.00 Build 0)  -->
<svg version="1.1" xmlns="http://www.w3.org/2000/svg" xmlns:xlink="http://www.w3.org/1999/xlink" x="0px" y="0px"
	 viewBox="0 0 58 58" enable-background="new 0 0 58 58" xml:space="preserve">
<g id="图层_2" display="none">
	<rect display="inline" fill="#E6E6E6" width="58" height="58"/>
</g>
<g id="图层_1" display="none">
	<circle display="inline" fill="#49C3FC" cx="29" cy="29" r="29"/>
</g>
<g id="图层_5">
	<g>
		<circle opacity="0.4" cx="29" cy="29" r="28"/>
		<path fill="#FFFFFF" d="M29,1c15.5,0,28,12.5,28,28S44.5,57,29,57S1,44.5,1,29S13.5,1,29,1 M29,0C13,0,0,13,0,29s13,29,29,29
			s29-13,29-29S45,0,29,0L29,0z"/>
	</g>
</g>
<g id="图层_3">
	<g>
		<g>
			<path fill="#FCFCFC" d="M24.2,24.7c-0.3-0.3-0.7-0.5-1.2-0.5c-0.4,0-0.9,0.2-1.2,0.5c-0.3,0.3-0.5,0.7-0.5,1.2
				c0,0.4,0.2,0.9,0.5,1.2c0.3,0.3,0.7,0.5,1.2,0.5c0.4,0,0.9-0.2,1.2-0.5c0.3-0.3,0.5-0.7,0.5-1.2C24.7,25.4,24.5,25,24.2,24.7z
				 M31.5,26.8c0-0.6,0.5-1.1,1.1-1.1c0.6,0,1.1,0.5,1.1,1.1c0,0.3,0.3,0.6,0.6,0.6c0.3,0,0.6-0.3,0.6-0.6c0-1.2-1-2.2-2.2-2.2
				c-1.2,0-2.2,1-2.2,2.2c0,0.3,0.3,0.6,0.6,0.6C31.2,27.4,31.5,27.2,31.5,26.8z M28.3,35.9c-8.6,0-11.1,4.1-11.2,4.3
				c0,0-0.3,0.6,0.3,1.1c0.6,0.5,1.2-0.2,1.2-0.2l0,0c0,0,0.5-0.9,2-1.7c2.4-1.4,5.5-1.7,7.7-1.7c3.9,0,6.4,0.9,7.7,1.7
				c1.4,0.8,2,1.7,2,1.7l0,0c0,0,0.5,0.6,1.2,0.2c0.7-0.4,0.4-1.1,0.4-1.1C39.5,40,37,35.9,28.3,35.9z M41.8,19.1h-3
				c-0.6-1-1.3-2-2.1-2.9c-1.2-1.2-2.5-2.1-4-2.7c-1.5-0.7-3.2-1-4.9-1c-1.7,0-3.3,0.3-4.9,1c-1.5,0.6-2.8,1.5-4,2.7
				c-1.2,1.2-2.1,2.5-2.7,4c-0.7,1.5-1,3.2-1,4.9c0,4.2,2.1,8.1,5.5,10.4c0.2,0.1,0.3,0.2,0.5,0.2c0.3,0,0.6-0.1,0.7-0.4
				c0.3-0.4,0.2-1-0.2-1.3c-3-2-4.7-5.3-4.7-8.9c0-1.5,0.3-2.9,0.9-4.2h19.8c0.6,1.3,0.9,2.7,0.9,4.2c0,3.5-1.8,6.9-4.7,8.9
				c-0.4,0.3-0.5,0.8-0.2,1.3c0.3,0.4,0.8,0.5,1.3,0.2c3.4-2.3,5.5-6.2,5.5-10.4c0-1.4-0.2-2.9-0.7-4.2h2.2c0.5,0,0.9-0.4,0.9-0.9
				S42.3,19.1,41.8,19.1z M18.9,19.1c0.4-0.6,0.8-1.1,1.3-1.6c2-2,4.7-3.1,7.6-3.1c2.9,0,5.6,1.1,7.6,3.1c0.5,0.5,0.9,1,1.3,1.6
				H18.9z"/>
		</g>
	</g>
</g>
<g id="图层_4" display="none">
	<path display="inline" fill="#FCFCFC" d="M44.8,23.8C44.8,23.8,44.8,23.8,44.8,23.8c0-0.1,0-0.2-0.1-0.2L42,16.9
		c-0.5-1.4-1.8-2.2-3.4-2.3H19.5c-1.6,0-2.9,0.8-3.3,2.2l-2.9,6.9c0,0,0,0.1,0,0.2c-0.2,0.6-0.3,1.3-0.3,2c0,2.3,1.3,4.5,3.4,5.6
		c0,0,0,0,0,0c0,0,0,0,0,0c0,0,0,0,0,0c0.9,0.5,1.9,0.7,3,0.7c1.9,0,3.7-0.8,4.9-2.3c1.2,1.4,3,2.2,4.9,2.2c1.9,0,3.6-0.8,4.8-2.3
		c1.2,1.4,3,2.2,4.9,2.2c1.2,0,2.2-0.2,3.1-0.7c2.1-1.1,3.3-3.2,3.3-5.6C45.1,25.1,45,24.4,44.8,23.8L44.8,23.8z M40.7,29.3
		c-0.5,0.3-1.2,0.4-1.9,0.4c-1.4,0-2.7-0.7-3.5-1.9c-0.1-0.1-0.1-0.3-0.3-0.5c-0.2-0.2-0.5-0.5-1.1-0.5c-0.5,0-0.9,0.2-1.1,0.5
		c-0.2,0.2-0.2,0.3-0.3,0.5c-0.7,1.2-2,1.9-3.4,1.9c-1.4,0-2.7-0.7-3.4-1.9c-0.1-0.1-0.1-0.3-0.3-0.4c-0.5-0.6-1.8-0.6-2.2,0
		c-0.2,0.2-0.3,0.4-0.3,0.5c-0.8,1.2-2,1.9-3.5,1.9c-0.8,0-1.4-0.1-1.9-0.4h0c-1.3-0.7-2.2-2.1-2.2-3.6c0-0.4,0.1-0.9,0.2-1.3
		c0,0,0-0.1,0-0.1l2.9-6.8c0.1-0.2,0.2-0.7,1.1-0.7h19.1c0.4,0,1,0.1,1.2,0.7l2.7,6.7c0,0,0,0.1,0,0.1c0.1,0.4,0.2,0.9,0.2,1.3
		C42.8,27.2,42,28.6,40.7,29.3L40.7,29.3z M41.5,33c-0.6,0-1.2,0.5-1.2,1.2l0,6.3c0,0.4-0.3,0.6-0.7,0.6l-21.9,0
		c-0.4,0-0.7-0.3-0.7-0.6l0-6.2c0-0.6-0.5-1.1-1.2-1.1h0c-0.6,0-1.2,0.5-1.2,1.2l0,6.2c0,1.6,1.3,2.9,3,2.9l21.9,0c1.6,0,3-1.3,3-3
		l0-6.3C42.7,33.5,42.2,33,41.5,33L41.5,33z M38.1,22.6H19.5c-0.6,0-1.2,0.5-1.2,1.2c0,0.6,0.5,1.2,1.2,1.2h18.6
		c0.6,0,1.2-0.5,1.2-1.2C39.3,23.1,38.7,22.6,38.1,22.6L38.1,22.6z M38.1,22.6"/>
</g>
</svg>
