<svg xmlns="http://www.w3.org/2000/svg" xmlns:xlink="http://www.w3.org/1999/xlink" preserveAspectRatio="xMidYMid" width="72" height="72.313" viewBox="0 0 72 72.313">
  <defs>
    <style>
      .cls-1 {
        fill: #fff;
        stroke: #b0b0b0;
        stroke-width: 1px;
      }

      .cls-2 {
        fill: #3fbef9;
        fill-rule: evenodd;
      }
    </style>
  </defs>
  <g>
    <rect width="72" height="71.813" rx="10" ry="10" class="cls-1"/>
    <path d="M44.400,42.000 L43.000,42.000 C43.000,42.000 44.378,31.571 44.555,31.659 C47.636,33.182 50.000,34.904 50.000,36.951 L50.000,37.994 C50.000,40.151 44.400,42.000 44.400,42.000 ZM41.482,41.760 C42.379,41.894 43.000,42.000 43.000,42.000 L41.444,42.000 C41.444,42.000 41.460,41.900 41.482,41.760 ZM30.556,42.000 C30.556,42.000 28.841,30.937 29.000,30.864 C29.840,30.476 30.392,30.109 31.219,29.808 C31.525,29.696 32.931,29.050 32.111,26.887 C30.240,24.960 29.036,23.074 29.000,18.932 L43.000,18.932 C42.962,23.032 41.748,24.958 39.889,26.887 C39.087,29.341 40.344,29.741 40.548,29.808 C41.366,30.081 42.180,30.510 43.000,30.864 C43.186,30.944 41.727,40.217 41.482,41.760 C39.912,41.526 37.486,41.204 36.000,41.204 C33.668,41.204 30.556,42.000 30.556,42.000 ZM29.000,18.932 C28.902,18.932 28.999,18.833 29.000,18.932 ZM43.000,18.932 C43.001,18.833 43.098,18.932 43.000,18.932 ZM46.111,17.341 C46.234,17.341 46.154,17.457 46.111,17.341 ZM25.889,17.341 C25.864,17.453 25.775,17.341 25.889,17.341 ZM27.970,14.647 C27.970,9.442 34.587,7.288 34.587,7.288 C35.546,6.959 36.475,6.861 37.413,7.288 C37.413,7.288 44.029,9.741 44.029,14.647 C44.029,15.399 45.287,15.115 46.111,17.341 L25.889,17.341 C26.391,15.108 27.970,15.402 27.970,14.647 ZM29.000,42.000 L27.444,42.000 C27.444,42.000 22.000,40.143 22.000,37.994 L22.000,36.951 C22.000,34.945 24.410,33.212 27.444,31.659 C27.592,31.584 29.000,42.000 29.000,42.000 Z" class="cls-2"/>
    <path d="M56.002,63.885 L55.246,64.851 C50.724,61.925 47.770,57.984 46.384,53.028 C45.222,57.802 42.212,61.750 37.354,64.872 L36.661,63.864 C42.513,60.210 45.544,55.366 45.754,49.332 L45.775,45.930 L46.930,45.930 C46.930,47.498 46.881,49.031 46.783,50.529 C47.959,56.353 51.032,60.805 56.002,63.885 ZM16.291,62.856 L24.859,62.856 L24.859,48.555 L17.383,48.555 L17.383,47.463 L33.490,47.463 L33.490,48.555 L25.993,48.555 L25.993,62.856 L34.393,62.856 L34.393,63.990 L16.291,63.990 L16.291,62.856 Z" class="cls-2"/>
  </g>
</svg>
