<?xml version="1.0" encoding="utf-8"?>
<!-- Generator: Adobe Illustrator 18.1.0, SVG Export Plug-In . SVG Version: 6.00 Build 0)  -->
<svg version="1.1" xmlns="http://www.w3.org/2000/svg" xmlns:xlink="http://www.w3.org/1999/xlink" x="0px" y="0px"
	 viewBox="0 0 24 24" enable-background="new 0 0 24 24" xml:space="preserve">
<g id="图层_1" display="none">
	<rect display="inline" fill="#FFFFFF" stroke="#00FFFF" stroke-width="0.2" stroke-miterlimit="10" width="24" height="24"/>
</g>
<g id="图层_2">
	<path fill-rule="evenodd" clip-rule="evenodd" fill="#AAAAAA" d="M14.9,17.7c-2.1,0-4.1-0.8-5.6-2l-7.8,7.8l-1-1l7.8-7.8
		c-1.3-1.5-2-3.4-2-5.6c0-4.8,3.9-8.6,8.6-8.6c4.8,0,8.6,3.9,8.6,8.6C23.5,13.9,19.6,17.7,14.9,17.7z M14.9,2c-4,0-7.2,3.2-7.2,7.2
		s3.2,7.2,7.2,7.2c4,0,7.2-3.2,7.2-7.2S18.8,2,14.9,2z"/>
</g>
</svg>
