<?xml version="1.0" encoding="utf-8"?>
<!-- Generator: Adobe Illustrator 18.1.0, SVG Export Plug-In . SVG Version: 6.00 Build 0)  -->
<svg version="1.1" id="图层_1" xmlns="http://www.w3.org/2000/svg" xmlns:xlink="http://www.w3.org/1999/xlink" x="0px" y="0px"
	 viewBox="0 0 68 68" enable-background="new 0 0 68 68" xml:space="preserve">
<g id="图层_1_1_" display="none">
	
		<rect x="14.6" y="14.6" display="inline" fill="#FFFFFF" stroke="#00FFFF" stroke-width="0.2" stroke-miterlimit="10" width="38.9" height="38.9"/>
</g>
<g id="图层_3" display="none">
	<g display="inline">
		<g>
			<path fill="#3CBFFD" d="M34,16.5c-5.8,0-10.2,4.9-10.2,10.2c0,3.9,2.4,7.8,5.8,9.2c-6.3,1.9-11.2,7.8-11.2,15.1c0,0.5,0.5,1,1,1
				s1-0.5,1-1c0-7.8,6.3-14.1,14.1-14.1c5.8,0,10.2-4.9,10.2-10.2S39.8,16.5,34,16.5z M34,35.5c-4.9,0-8.7-3.9-8.7-8.7
				S29.1,18,34,18s8.7,3.9,8.7,8.7S38.9,35.5,34,35.5z M43.2,38.4c-0.5-0.5-1,0-1,0c-0.5,0.5,0,1,0,1c3.4,2.4,5.3,6.8,5.3,11.2
				c0,0.5,0.5,1,1,1s1-0.5,1-1C49.5,46.1,47.1,41.3,43.2,38.4z"/>
		</g>
	</g>
</g>
<g id="图层_2" display="none">
	<path display="inline" fill="#3CBFFD" d="M27.7,20.4c-0.5-1-1.5-1.9-2.4-2.9c-1-1-1.5-1.5-2.4-1.5c-1.5,0-2.9,1.9-4.4,3.4
		c-0.5,1-2.4,3.4-2.4,5.8s1.5,5.3,2.9,7.3c1.5,2.9,3.9,6.3,6.8,8.7l1,1c2.9,2.4,5.8,4.9,8.7,6.8c1.9,1.5,4.9,2.9,7.3,2.9
		c2.4,0,4.9-1.9,5.8-2.4c1.5-1,3.4-2.9,3.4-4.4c0-0.5-0.5-1.5-1.5-2.4c-1-1-1.9-1.9-2.9-2.4s-2.4-1.5-3.4-1.9c-1.5-1-1.9-1-2.4-1
		s-1.5,0.5-1.9,1c-0.5,0.5-0.5,1.5-1,1.9c0,0.5-0.5,1-0.5,1.5l0,0l0,0c0,0-1-0.5-2.9-1.5c-1.5-1-2.9-2.4-4.4-3.4
		c-1-1.5-2.4-2.9-3.4-4.4s-1.5-2.4-1.5-2.4l0,0l0,0c0.5-0.5,1-1,1.5-1c0.5-0.5,1.5-0.5,1.9-1c1-0.5,1-1,1-1.9c0-0.5,0-1-1-2.4
		C29.1,22.8,28.7,21.4,27.7,20.4L27.7,20.4z M28.7,26.2C28.7,26.7,28.7,26.7,28.7,26.2c-0.5,1-1,1-1.5,1s-1,0.5-1.5,1
		c-1,0.5-1,1-1,1.5s0,1.5,1.9,3.9c1,1.5,2.4,2.9,3.4,4.4c1.5,1,2.9,2.4,4.4,3.4c2.4,1.9,3.4,1.9,3.9,1.9l0,0c0.5,0,1-0.5,1.5-1
		s0.5-1,1-1.5c0-0.5,0.5-1,0.5-1.5s0.5-0.5,0.5-0.5l0,0l0,0c0,0,0.5,0,1.9,0.5c1,0.5,1.9,1,2.9,1.9c2.4,1.9,3.9,2.9,3.9,3.4l0,0l0,0
		c0,0,0,0.5-0.5,1c-1,1-1.5,1.9-2.4,2.4c-1.9,1.5-3.4,1.9-4.9,1.9s-3.9-1-6.8-2.4c-2.9-1.5-5.3-3.9-8.3-6.8l0,0l-0.5-0.5
		c-2.9-2.9-4.9-5.8-6.8-8.3c-1.5-2.9-2.4-5.3-2.4-6.8s1-2.9,1.9-4.9c0.5-0.5,1-1.5,1.9-1.9c0.5-0.5,1-0.5,1-0.5l0,0l0,0
		c0.5,0,1.5,1.5,3.4,3.9c0.5,1,1.5,1.9,1.9,2.9C28.7,25.7,28.7,26.2,28.7,26.2L28.7,26.2L28.7,26.2L28.7,26.2z"/>
</g>
<g>
	<g>
		<path fill="#E4E4E4" d="M53,38.3c1.4-3.4,2.2-7,2.2-10.7c0-3.7-0.7-7.3-2.2-10.7c-1.4-3.3-3.4-6.2-5.9-8.8
			c-2.5-2.5-5.5-4.5-8.8-5.9C34.9,0.7,31.3,0,27.6,0c-3.7,0-7.3,0.7-10.7,2.2c-3.3,1.4-6.2,3.4-8.8,5.9c-2.5,2.5-4.5,5.5-5.9,8.8
			C0.7,20.3,0,23.9,0,27.6c0,3.7,0.7,7.3,2.2,10.7c1.4,3.3,3.4,6.2,5.9,8.8c2.5,2.5,5.5,4.5,8.8,5.9c3.4,1.4,7,2.2,10.7,2.2
			c3.7,0,7.3-0.7,10.7-2.2c3.3-1.4,6.2-3.4,8.8-5.9C49.7,44.6,51.6,41.6,53,38.3z M27.6,51.2C14.6,51.2,4,40.6,4,27.6
			C4,14.6,14.6,4,27.6,4c13,0,23.6,10.6,23.6,23.6C51.2,40.6,40.6,51.2,27.6,51.2z M66.2,57.3L54.6,45.4l-2.9,2.8l11.5,11.9l0,0
			c0.4,0.4,0.7,1,0.7,1.6c0,0.6-0.2,1.2-0.7,1.6c-0.4,0.4-1,0.7-1.6,0.7c-0.6,0-1.2-0.2-1.6-0.7L48.2,51.7l-2.8,2.9l11.9,11.5
			c1.2,1.2,2.8,1.8,4.4,1.8c1.7,0,3.3-0.7,4.4-1.8c1.2-1.2,1.8-2.8,1.8-4.4C68,60,67.4,58.5,66.2,57.3z M15.6,15.6
			c-3.2,3.2-5,7.5-5,12c0,4.5,1.8,8.8,5,12l2.8-2.8c-5-5-5-13.2,0-18.3L15.6,15.6z"/>
	</g>
</g>
</svg>
