<svg xmlns="http://www.w3.org/2000/svg" xmlns:xlink="http://www.w3.org/1999/xlink" preserveAspectRatio="xMidYMid" width="40" height="40" viewBox="0 0 40 40">
  <defs>
    <style>
      .cls-1 {
        fill: #ffa53b;
      }

      .cls-2 {
        fill: #fff;
        fill-rule: evenodd;
      }
    </style>
  </defs>
  <g>
    <rect width="40" height="40" rx="5" ry="5" class="cls-1"/>
    <path d="M26.500,36.000 L14.500,36.000 C12.843,36.000 11.500,34.657 11.500,33.000 L11.500,17.000 C11.500,15.343 12.843,14.000 14.500,14.000 L26.500,14.000 C28.157,14.000 29.500,15.343 29.500,17.000 L29.500,33.000 C29.500,34.657 28.157,36.000 26.500,36.000 ZM27.500,18.000 C27.500,17.448 27.052,17.000 26.500,17.000 C25.948,17.000 25.500,17.448 25.500,18.000 L25.500,30.000 C25.500,30.552 25.948,31.000 26.500,31.000 C27.052,31.000 27.500,30.552 27.500,30.000 L27.500,18.000 ZM28.000,13.000 L22.500,13.000 L18.500,13.000 L13.000,13.000 C12.172,13.000 11.500,12.328 11.500,11.500 C11.500,10.672 12.172,10.000 13.000,10.000 L15.500,10.000 C15.500,8.343 16.843,7.000 18.500,7.000 L18.500,6.000 C18.500,4.895 19.395,4.000 20.500,4.000 C21.605,4.000 22.500,4.895 22.500,6.000 L22.500,7.000 C24.157,7.000 25.500,8.343 25.500,10.000 L28.000,10.000 C28.828,10.000 29.500,10.672 29.500,11.500 C29.500,12.328 28.828,13.000 28.000,13.000 Z" class="cls-2"/>
  </g>
</svg>
