<svg xmlns="http://www.w3.org/2000/svg" xmlns:xlink="http://www.w3.org/1999/xlink" preserveAspectRatio="xMidYMid" width="40" height="40.001" viewBox="0 0 40 40.001">
  <defs>
    <style>
      .cls-1 {
        fill: #3fa7ff;
      }

      .cls-2, .cls-3 {
        fill: #fff;
      }

      .cls-3 {
        fill-rule: evenodd;
      }
    </style>
  </defs>
  <g>
    <rect width="40" height="40.001" rx="5" ry="5" class="cls-1"/>
    <rect x="15" y="6.531" width="10" height="10" rx="1" ry="1" class="cls-2"/>
    <path d="M33.000,33.531 L27.000,33.531 C26.448,33.531 26.000,33.083 26.000,32.531 L26.000,26.531 C26.000,25.979 26.448,25.531 27.000,25.531 L29.000,25.531 L29.000,21.531 L21.000,21.531 L19.000,21.531 L11.000,21.531 L11.000,25.531 L13.000,25.531 C13.552,25.531 14.000,25.979 14.000,26.531 L14.000,32.531 C14.000,33.083 13.552,33.531 13.000,33.531 L7.000,33.531 C6.448,33.531 6.000,33.083 6.000,32.531 L6.000,26.531 C6.000,25.979 6.448,25.531 7.000,25.531 L9.000,25.531 L9.000,21.531 L9.000,19.531 L19.000,19.531 L19.000,15.531 L21.000,15.531 L21.000,19.531 L31.000,19.531 L31.000,21.531 L31.000,25.531 L33.000,25.531 C33.552,25.531 34.000,25.979 34.000,26.531 L34.000,32.531 C34.000,33.083 33.552,33.531 33.000,33.531 Z" class="cls-3"/>
  </g>
</svg>
