<svg xmlns="http://www.w3.org/2000/svg" xmlns:xlink="http://www.w3.org/1999/xlink" preserveAspectRatio="xMidYMid" width="38.344" height="34.594" viewBox="0 0 38.344 34.594">
  <defs>
    <style>
      .cls-1 {
        fill: #e4e4e4;
        fill-rule: evenodd;
      }
    </style>
  </defs>
  <path d="M29.828,34.593 L8.524,34.593 C3.829,34.593 0.009,30.773 0.009,26.077 L0.009,8.674 C0.009,4.390 3.213,0.757 7.461,0.223 L9.052,0.023 L9.052,1.727 C9.052,2.329 9.542,2.819 10.144,2.819 C10.746,2.819 11.235,2.329 11.235,1.727 L11.235,0.156 L17.928,0.156 L17.928,1.571 C17.928,2.259 18.488,2.819 19.176,2.819 C19.864,2.819 20.424,2.259 20.424,1.571 L20.424,0.156 L27.692,0.156 L27.692,1.571 C27.692,2.259 28.252,2.819 28.940,2.819 C29.584,2.819 30.130,2.317 30.183,1.676 L30.321,0.007 L31.944,0.422 C35.711,1.386 38.343,4.779 38.343,8.674 L38.343,26.077 C38.343,30.773 34.523,34.593 29.828,34.593 ZM35.513,8.674 C35.513,6.517 34.305,4.591 32.460,3.629 C32.259,3.972 32.007,4.287 31.709,4.562 C30.953,5.263 29.969,5.649 28.940,5.649 C27.188,5.649 25.692,4.539 25.115,2.986 L23.001,2.986 C22.424,4.539 20.928,5.649 19.176,5.649 C17.425,5.649 15.928,4.539 15.352,2.986 L13.858,2.986 C13.332,4.533 11.866,5.649 10.144,5.649 C8.554,5.649 7.181,4.697 6.567,3.333 C4.374,4.139 2.839,6.250 2.839,8.674 L2.839,26.077 C2.839,29.212 5.389,31.763 8.524,31.763 L29.828,31.763 C32.963,31.763 35.513,29.212 35.513,26.077 L35.513,8.674 ZM29.965,27.023 L8.388,27.023 C7.606,27.023 6.973,26.389 6.973,25.608 C6.973,24.827 7.606,24.193 8.388,24.193 L29.965,24.193 C30.746,24.193 31.379,24.827 31.379,25.608 C31.379,26.389 30.746,27.023 29.965,27.023 ZM29.965,19.871 L8.388,19.871 C7.606,19.871 6.973,19.237 6.973,18.456 C6.973,17.674 7.606,17.041 8.388,17.041 L29.965,17.041 C30.746,17.041 31.379,17.674 31.379,18.456 C31.379,19.237 30.746,19.871 29.965,19.871 ZM29.965,12.372 L8.388,12.372 C7.606,12.372 6.973,11.739 6.973,10.957 C6.973,10.176 7.606,9.542 8.388,9.542 L29.965,9.542 C30.746,9.542 31.379,10.176 31.379,10.957 C31.379,11.739 30.746,12.372 29.965,12.372 Z" class="cls-1"/>
</svg>
