<svg xmlns="http://www.w3.org/2000/svg" xmlns:xlink="http://www.w3.org/1999/xlink" preserveAspectRatio="xMidYMid" width="16.938" height="17.5" viewBox="0 0 16.938 17.5">
  <defs>
    <style>
      .cls-1 {
        fill: #3cbffd;
        stroke: #aaa;
        stroke-linejoin: round;
        stroke-width: 1px;
        fill-opacity: 0;
        fill-rule: evenodd;
      }
    </style>
  </defs>
  <path d="M14.820,15.366 C14.820,15.366 14.315,16.994 13.697,16.994 L7.110,16.994 C6.652,16.994 5.482,16.684 5.482,15.825 L5.482,7.109 C5.482,7.109 8.738,4.699 8.738,1.627 C8.831,1.467 8.578,0.504 9.794,0.504 C9.794,0.504 12.661,0.825 10.964,7.111 L15.345,7.111 C15.345,7.111 16.445,7.018 16.445,8.167 C16.447,8.164 16.447,9.815 14.820,15.366 ZM3.883,16.994 L1.614,16.994 C1.614,16.994 1.055,16.994 1.055,16.435 L0.511,7.644 C0.511,7.644 0.519,7.111 1.062,7.111 L3.684,7.111 C3.684,7.111 4.352,7.103 4.352,7.779 L4.352,16.624 C4.352,16.624 4.357,16.994 3.883,16.994 Z" class="cls-1"/>
</svg>
