<svg xmlns="http://www.w3.org/2000/svg" xmlns:xlink="http://www.w3.org/1999/xlink" preserveAspectRatio="xMidYMid" width="40" height="40" viewBox="0 0 40 40">
  <defs>
    <style>
      .cls-1, .cls-4 {
        fill: #3fa7ff;
      }

      .cls-2 {
        fill: #fff;
        fill-rule: evenodd;
      }

      .cls-3, .cls-4 {
        font-size: 12px;
      }

      .cls-4 {
        font-family: "HYQiHei-FZS";
      }
    </style>
  </defs>
  <g>
    <rect width="40" height="40" rx="5" ry="5" class="cls-1"/>
    <path d="M27.500,36.000 L13.500,36.000 C11.843,36.000 10.500,34.657 10.500,33.000 L10.500,32.000 L30.500,32.000 L30.500,33.000 C30.500,34.657 29.157,36.000 27.500,36.000 ZM21.500,33.000 L19.500,33.000 C18.948,33.000 18.500,33.448 18.500,34.000 C18.500,34.552 18.948,35.000 19.500,35.000 L21.500,35.000 C22.052,35.000 22.500,34.552 22.500,34.000 C22.500,33.448 22.052,33.000 21.500,33.000 ZM10.500,9.000 L30.500,9.000 L30.500,31.000 L10.500,31.000 L10.500,9.000 ZM10.500,7.000 C10.500,5.343 11.843,4.000 13.500,4.000 L27.500,4.000 C29.157,4.000 30.500,5.343 30.500,7.000 L30.500,8.000 L10.500,8.000 L10.500,7.000 Z" class="cls-2"/>
    <text x="14.5" y="23" class="cls-3"><tspan class="cls-4">工</tspan></text>
  </g>
</svg>
