<svg xmlns="http://www.w3.org/2000/svg" xmlns:xlink="http://www.w3.org/1999/xlink" preserveAspectRatio="xMidYMid" width="40" height="40" viewBox="0 0 40 40">
  <defs>
    <style>
      .cls-1 {
        fill: #ff84a4;
      }

      .cls-2 {
        fill: #fff;
        fill-rule: evenodd;
      }
    </style>
  </defs>
  <g>
    <rect width="40" height="40" rx="5" ry="5" class="cls-1"/>
    <path d="M36.500,18.500 C36.500,19.377 36.166,20.168 35.634,20.782 C35.636,20.785 35.638,20.788 35.640,20.790 L31.500,27.000 C31.035,27.936 29.231,28.985 27.500,28.000 C27.500,28.000 25.813,27.000 19.480,27.000 C14.103,27.000 12.500,28.000 12.500,28.000 C10.186,29.183 9.051,27.678 8.500,27.000 L5.152,20.974 C5.224,20.909 5.281,20.830 5.348,20.760 C4.827,20.149 4.500,19.366 4.500,18.500 C4.500,17.031 5.407,15.778 6.691,15.259 C9.039,13.868 14.491,11.000 19.543,11.000 C24.880,11.000 30.920,13.662 33.793,15.098 C35.342,15.458 36.500,16.841 36.500,18.500 ZM23.500,19.000 L20.500,19.000 L20.500,16.000 L18.500,16.000 L18.500,19.000 L15.500,19.000 L15.500,21.000 L18.500,21.000 L18.500,24.000 L20.500,24.000 L20.500,21.000 L23.500,21.000 L23.500,19.000 Z" class="cls-2"/>
  </g>
</svg>
