<svg xmlns="http://www.w3.org/2000/svg" xmlns:xlink="http://www.w3.org/1999/xlink" preserveAspectRatio="xMidYMid" width="40" height="40" viewBox="0 0 40 40">
  <defs>
    <style>
      .cls-1 {
        fill: #ff84a4;
      }

      .cls-2 {
        fill: #fff;
        fill-rule: evenodd;
      }
    </style>
  </defs>
  <g>
    <rect width="40" height="40" rx="5" ry="5" class="cls-1"/>
    <path d="M30.070,21.540 C29.502,22.108 28.581,22.108 28.013,21.540 L25.500,19.027 L25.500,24.000 C25.500,24.054 25.486,24.105 25.484,24.159 C25.877,24.302 26.248,24.524 26.564,24.839 L28.661,26.936 C29.364,27.639 29.633,28.607 29.483,29.519 C29.613,30.141 29.440,30.814 28.957,31.296 L24.827,35.426 C24.067,36.187 22.834,36.187 22.074,35.426 C21.314,34.666 21.314,33.433 22.074,32.673 L25.042,29.705 L23.399,28.061 C22.580,28.647 21.584,29.000 20.500,29.000 C19.568,29.000 18.706,28.728 17.959,28.284 C17.867,28.375 17.777,28.466 17.682,28.561 L16.286,29.957 L19.036,32.707 C19.817,33.488 19.817,34.754 19.036,35.535 C18.254,36.317 16.988,36.317 16.207,35.535 L12.494,31.823 C12.435,31.774 12.378,31.742 12.318,31.682 C12.258,31.622 12.214,31.552 12.160,31.488 L11.964,31.293 C11.437,30.765 11.274,30.018 11.460,29.346 C11.510,28.652 11.787,27.970 12.318,27.439 L14.439,25.318 C14.767,24.991 15.153,24.765 15.563,24.620 C15.537,24.415 15.500,24.212 15.500,24.000 L15.500,19.121 L12.939,21.682 C12.354,22.268 11.404,22.268 10.818,21.682 C10.232,21.096 10.232,20.146 10.818,19.561 L17.061,13.318 C17.184,13.195 17.329,13.113 17.477,13.041 C18.319,12.398 19.358,12.000 20.500,12.000 C21.815,12.000 23.003,12.519 23.896,13.349 C23.934,13.380 23.981,13.394 24.017,13.430 L30.070,19.483 C30.638,20.051 30.638,20.972 30.070,21.540 ZM20.500,11.000 C18.291,11.000 16.500,9.209 16.500,7.000 C16.500,4.791 18.291,3.000 20.500,3.000 C22.709,3.000 24.500,4.791 24.500,7.000 C24.500,9.209 22.709,11.000 20.500,11.000 Z" class="cls-2"/>
  </g>
</svg>
