<svg xmlns="http://www.w3.org/2000/svg" xmlns:xlink="http://www.w3.org/1999/xlink" preserveAspectRatio="xMidYMid" width="40" height="40" viewBox="0 0 40 40">
  <defs>
    <style>
      .cls-1 {
        fill: #3fa7ff;
      }

      .cls-2 {
        fill: #fff;
        fill-rule: evenodd;
      }
    </style>
  </defs>
  <g>
    <rect width="40" height="40" rx="5" ry="5" class="cls-1"/>
    <path d="M34.500,31.000 L6.500,31.000 C5.395,31.000 4.500,30.105 4.500,29.000 L4.500,11.000 C4.500,9.895 5.395,9.000 6.500,9.000 L16.500,9.000 C16.500,10.657 17.843,12.000 19.500,12.000 L21.500,12.000 C23.157,12.000 24.500,10.657 24.500,9.000 L34.500,9.000 C35.605,9.000 36.500,9.895 36.500,11.000 L36.500,29.000 C36.500,30.105 35.605,31.000 34.500,31.000 ZM13.000,15.000 C11.619,15.000 10.500,16.119 10.500,17.500 C10.500,18.881 11.619,20.000 13.000,20.000 C14.381,20.000 15.500,18.881 15.500,17.500 C15.500,16.119 14.381,15.000 13.000,15.000 ZM16.000,21.000 L10.000,21.000 C8.619,21.000 7.500,22.119 7.500,23.500 C7.500,24.065 7.695,24.581 8.011,25.000 L17.989,25.000 C18.305,24.581 18.500,24.065 18.500,23.500 C18.500,22.119 17.381,21.000 16.000,21.000 ZM32.500,15.000 L24.500,15.000 C23.948,15.000 23.500,15.448 23.500,16.000 C23.500,16.552 23.948,17.000 24.500,17.000 L32.500,17.000 C33.052,17.000 33.500,16.552 33.500,16.000 C33.500,15.448 33.052,15.000 32.500,15.000 ZM32.500,19.000 L24.500,19.000 C23.948,19.000 23.500,19.448 23.500,20.000 C23.500,20.552 23.948,21.000 24.500,21.000 L32.500,21.000 C33.052,21.000 33.500,20.552 33.500,20.000 C33.500,19.448 33.052,19.000 32.500,19.000 ZM32.500,23.000 L24.500,23.000 C23.948,23.000 23.500,23.448 23.500,24.000 C23.500,24.552 23.948,25.000 24.500,25.000 L32.500,25.000 C33.052,25.000 33.500,24.552 33.500,24.000 C33.500,23.448 33.052,23.000 32.500,23.000 ZM21.500,11.000 L19.500,11.000 C18.395,11.000 17.500,10.105 17.500,9.000 C17.500,7.895 18.395,7.000 19.500,7.000 C19.500,6.448 19.948,6.000 20.500,6.000 C21.052,6.000 21.500,6.448 21.500,7.000 C22.605,7.000 23.500,7.895 23.500,9.000 C23.500,10.105 22.605,11.000 21.500,11.000 Z" class="cls-2"/>
  </g>
</svg>
