<svg xmlns="http://www.w3.org/2000/svg" xmlns:xlink="http://www.w3.org/1999/xlink" preserveAspectRatio="xMidYMid" width="40" height="40" viewBox="0 0 40 40">
  <defs>
    <style>
      .cls-1 {
        fill: #ffa53b;
      }

      .cls-2, .cls-3 {
        fill: #fff;
      }

      .cls-2 {
        fill-rule: evenodd;
      }
    </style>
  </defs>
  <g>
    <rect width="40" height="40" rx="5" ry="5" class="cls-1"/>
    <path d="M36.300,15.813 L31.969,15.813 L31.969,13.406 L36.300,13.406 C36.963,13.406 37.500,13.944 37.500,14.606 L37.500,14.612 C37.500,15.275 36.963,15.813 36.300,15.813 ZM31.188,15.813 L10.625,15.813 L10.625,13.406 L31.188,13.406 L31.188,15.813 ZM4.281,14.612 L4.281,14.606 C4.281,13.944 4.819,13.406 5.481,13.406 L9.813,13.406 L9.813,15.813 L5.481,15.813 C4.819,15.813 4.281,15.275 4.281,14.612 Z" class="cls-2"/>
    <path d="M36.314,18.188 L36.311,18.188 C35.656,18.188 35.125,17.657 35.125,17.001 L35.125,12.186 C35.125,11.531 35.656,11.000 36.311,11.000 L36.314,11.000 C36.969,11.000 37.500,11.531 37.500,12.186 L37.500,17.001 C37.500,17.657 36.969,18.188 36.314,18.188 ZM4.689,18.188 L4.686,18.188 C4.031,18.188 3.500,17.657 3.500,17.001 L3.500,12.186 C3.500,11.531 4.031,11.000 4.686,11.000 L4.689,11.000 C5.344,11.000 5.875,11.531 5.875,12.186 L5.875,17.001 C5.875,17.657 5.344,18.188 4.689,18.188 Z" class="cls-2"/>
    <rect x="10.625" y="11.81" width="20.563" height="20.19" rx="2" ry="2" class="cls-3"/>
  </g>
</svg>
