<svg xmlns="http://www.w3.org/2000/svg" xmlns:xlink="http://www.w3.org/1999/xlink" preserveAspectRatio="xMidYMid" width="10" height="15" viewBox="0 0 10 15">
  <defs>
    <style>
      .cls-1 {
        fill: #8c8a9e;
        fill-rule: evenodd;
      }
    </style>
  </defs>
  <path d="M5.608,5.746 L5.608,2.163 L7.924,4.315 C8.042,4.425 8.198,4.480 8.354,4.480 C8.509,4.480 8.665,4.425 8.783,4.315 C9.021,4.094 9.021,3.736 8.783,3.516 L5.000,0.000 L1.216,3.516 C0.978,3.736 0.978,4.094 1.216,4.315 C1.454,4.536 1.838,4.536 2.076,4.315 L4.392,2.163 L4.392,5.746 C1.921,6.027 -0.000,7.984 -0.000,10.355 C-0.000,12.916 2.243,15.000 5.000,15.000 C7.757,15.000 10.000,12.916 10.000,10.355 C10.000,7.984 8.079,6.027 5.608,5.746 L5.608,5.746 ZM5.000,13.870 C2.914,13.870 1.216,12.293 1.216,10.355 C1.216,8.416 2.914,6.838 5.000,6.838 C7.086,6.838 8.783,8.416 8.783,10.355 C8.783,12.293 7.086,13.870 5.000,13.870 L5.000,13.870 Z" class="cls-1"/>
</svg>
