<svg xmlns="http://www.w3.org/2000/svg" xmlns:xlink="http://www.w3.org/1999/xlink" preserveAspectRatio="xMidYMid" width="8.5" height="14.375" viewBox="0 0 8.5 14.375">
  <defs>
    <style>
      .cls-1 {
        fill: #8c8a9e;
        fill-rule: evenodd;
      }
    </style>
  </defs>
  <path d="M4.838,8.426 C6.901,8.140 8.490,6.369 8.490,4.227 C8.490,1.885 6.592,-0.013 4.250,-0.013 C1.908,-0.013 0.010,1.885 0.010,4.227 C0.010,6.369 1.599,8.140 3.663,8.426 L3.663,10.467 L0.917,10.467 L0.917,11.640 L3.663,11.640 L3.663,14.387 L4.837,14.387 L4.837,11.641 L7.583,11.641 L7.583,10.468 L4.838,10.468 L4.838,8.426 ZM4.250,7.293 C2.557,7.293 1.185,5.921 1.185,4.227 C1.185,2.533 2.557,1.161 4.250,1.161 C5.944,1.161 7.316,2.534 7.316,4.227 C7.316,5.921 5.944,7.293 4.250,7.293 Z" class="cls-1"/>
</svg>
