<svg xmlns="http://www.w3.org/2000/svg" xmlns:xlink="http://www.w3.org/1999/xlink" preserveAspectRatio="xMidYMid" width="37.687" height="41.031" viewBox="0 0 37.687 41.031">
  <defs>
    <style>
      .cls-1 {
        fill: #e4e4e4;
        fill-rule: evenodd;
      }
    </style>
  </defs>
  <path d="M34.088,21.372 C34.800,19.306 34.688,17.042 34.726,14.890 C34.771,12.374 34.826,9.857 34.832,7.341 C34.834,6.607 34.198,5.943 33.441,5.965 C30.738,6.043 28.537,6.956 26.221,7.982 C25.866,6.377 25.169,4.909 24.102,3.543 C23.007,2.141 20.740,0.004 18.788,0.004 C16.919,0.004 14.870,2.050 13.747,3.306 C12.561,4.631 11.765,6.184 11.315,7.851 C9.221,6.810 7.294,6.031 4.678,5.965 C3.919,5.945 3.286,6.605 3.286,7.341 C3.286,11.981 2.526,17.398 4.070,21.865 C6.016,27.498 11.559,30.898 17.319,31.541 L17.319,39.611 C17.319,41.460 20.051,41.460 20.051,39.611 L20.051,31.636 C26.349,31.355 32.053,27.282 34.088,21.372 L34.088,21.372 L34.088,21.372 ZM6.265,19.449 C5.869,17.774 6.069,15.842 6.069,14.137 L6.069,8.845 C8.119,9.177 9.662,10.097 11.626,11.103 C12.624,11.614 13.613,10.963 13.720,9.914 C14.018,6.989 15.878,4.453 18.425,3.011 C19.560,2.369 21.580,4.780 22.114,5.465 C23.060,6.676 23.545,8.114 23.677,9.614 C23.643,9.808 23.665,10.012 23.731,10.208 C23.937,11.228 25.127,11.537 25.875,11.130 C27.974,10.225 29.842,9.218 32.040,8.854 C32.016,11.740 31.949,14.626 31.895,17.511 C31.770,24.081 25.968,28.506 19.677,28.897 C13.578,29.275 7.672,25.400 6.265,19.449 L6.265,19.449 L6.265,19.449 ZM8.595,30.531 C5.879,29.490 1.362,30.113 0.098,33.091 C-0.597,34.727 2.098,35.434 2.781,33.823 C2.636,34.167 3.674,33.268 4.220,33.089 C6.173,32.449 7.855,32.975 9.377,34.212 C10.978,35.512 12.293,37.276 13.317,39.049 C14.207,40.589 16.612,39.203 15.720,37.659 C14.117,34.884 11.697,31.719 8.595,30.531 L8.595,30.531 L8.595,30.531 ZM37.575,33.468 C36.310,30.490 31.794,29.866 29.076,30.908 C25.975,32.096 23.555,35.261 21.952,38.036 C21.060,39.580 23.465,40.966 24.355,39.425 C25.398,37.620 26.729,35.975 28.295,34.588 C29.669,33.371 31.120,33.038 32.923,33.337 C33.494,33.432 34.123,33.633 34.587,33.990 C34.789,34.144 35.100,34.693 34.890,34.200 C35.574,35.811 38.269,35.104 37.575,33.468 L37.575,33.468 L37.575,33.468 Z" class="cls-1"/>
</svg>
