<svg xmlns="http://www.w3.org/2000/svg" xmlns:xlink="http://www.w3.org/1999/xlink" preserveAspectRatio="xMidYMid" width="42.657" height="42.63" viewBox="0 0 42.657 42.63">
  <defs>
    <style>
      .cls-1 {
        fill: #3cbffd;
        fill-rule: evenodd;
      }
    </style>
  </defs>
  <path d="M13.779,5.254 C13.099,4.283 12.060,2.890 10.980,1.771 C9.798,0.547 8.916,0.001 8.119,0.001 C6.526,0.001 4.423,2.046 2.986,3.959 C2.085,5.160 -0.011,8.264 -0.011,11.164 C-0.011,13.886 1.824,17.432 3.364,19.928 C5.440,23.293 8.312,26.918 11.451,30.134 L12.476,31.158 C15.707,34.302 19.336,37.171 22.704,39.244 C25.202,40.781 28.752,42.614 31.479,42.614 C34.383,42.614 37.491,40.521 38.693,39.621 C40.609,38.186 42.656,36.086 42.656,34.494 C42.656,33.699 42.109,32.818 40.884,31.637 C39.765,30.560 38.369,29.522 37.396,28.841 C36.091,27.928 34.722,27.083 33.542,26.461 C31.671,25.474 30.888,25.360 30.463,25.360 C29.639,25.360 28.917,25.800 28.318,26.666 C27.904,27.265 27.588,27.996 27.282,28.703 C27.000,29.354 26.704,30.015 26.468,30.312 L26.368,30.439 L26.211,30.401 C25.957,30.342 24.963,30.034 22.849,28.596 C21.175,27.458 19.357,25.981 17.984,24.647 C16.646,23.274 15.167,21.458 14.025,19.784 C12.586,17.671 12.277,16.679 12.217,16.426 L12.180,16.269 L12.306,16.169 C12.625,15.915 13.394,15.582 13.904,15.362 C14.632,15.047 15.360,14.732 15.957,14.321 C16.824,13.723 17.265,13.003 17.265,12.178 C17.265,11.753 17.150,10.972 16.163,9.103 C15.541,7.927 14.695,6.560 13.779,5.254 L13.779,5.254 ZM15.175,12.300 C15.109,12.398 14.953,12.560 14.586,12.778 C14.164,13.029 13.602,13.271 13.107,13.484 C12.467,13.761 11.823,14.040 11.316,14.376 C10.524,14.900 10.130,15.533 10.146,16.258 C10.153,16.630 10.176,17.761 12.338,20.931 C13.547,22.704 15.114,24.627 16.529,26.077 C17.999,27.509 19.925,29.073 21.699,30.281 C24.871,32.439 26.006,32.462 26.378,32.470 L26.379,32.470 C27.132,32.470 27.755,32.073 28.270,31.290 C28.604,30.784 28.881,30.145 29.149,29.528 C29.381,28.991 29.614,28.452 29.863,28.035 C30.080,27.672 30.242,27.516 30.339,27.448 L30.423,27.390 L30.523,27.406 C30.707,27.434 31.273,27.573 32.557,28.247 C33.594,28.791 34.817,29.540 36.001,30.355 C39.121,32.506 40.360,33.961 40.578,34.431 L40.619,34.519 L40.590,34.612 C40.553,34.732 40.383,35.180 39.725,35.938 C39.117,36.638 38.273,37.399 37.346,38.081 C35.223,39.644 33.030,40.576 31.479,40.576 C29.751,40.576 26.943,39.458 23.775,37.509 C20.533,35.513 17.031,32.745 13.915,29.713 L13.913,29.711 L12.909,28.708 C9.870,25.593 7.099,22.095 5.101,18.859 C3.150,15.695 2.030,12.890 2.030,11.164 C2.030,9.615 2.964,7.424 4.528,5.304 C5.212,4.378 5.973,3.534 6.674,2.929 C7.435,2.270 7.883,2.100 8.002,2.064 L8.095,2.035 L8.183,2.077 C8.653,2.295 10.111,3.532 12.263,6.648 C13.079,7.829 13.829,9.051 14.374,10.086 C15.048,11.367 15.188,11.934 15.216,12.119 L15.232,12.217 L15.175,12.300 L15.175,12.300 Z" class="cls-1"/>
</svg>
