<svg xmlns="http://www.w3.org/2000/svg" xmlns:xlink="http://www.w3.org/1999/xlink" preserveAspectRatio="xMidYMid" width="40" height="40" viewBox="0 0 40 40">
  <defs>
    <style>
      .cls-1 {
        fill: #bdcbd3;
      }

      .cls-2 {
        fill: #fff;
        fill-rule: evenodd;
      }
    </style>
  </defs>
  <g>
    <rect width="40" height="40" rx="5" ry="5" class="cls-1"/>
    <path d="M31.000,22.530 C29.343,22.530 28.000,21.187 28.000,19.530 C28.000,17.873 29.343,16.530 31.000,16.530 C32.657,16.530 34.000,17.873 34.000,19.530 C34.000,21.187 32.657,22.530 31.000,22.530 ZM20.000,22.530 C18.343,22.530 17.000,21.187 17.000,19.530 C17.000,17.873 18.343,16.530 20.000,16.530 C21.657,16.530 23.000,17.873 23.000,19.530 C23.000,21.187 21.657,22.530 20.000,22.530 ZM9.000,22.530 C7.343,22.530 6.000,21.187 6.000,19.530 C6.000,17.873 7.343,16.530 9.000,16.530 C10.657,16.530 12.000,17.873 12.000,19.530 C12.000,21.187 10.657,22.530 9.000,22.530 Z" class="cls-2"/>
  </g>
</svg>
