<svg xmlns="http://www.w3.org/2000/svg" xmlns:xlink="http://www.w3.org/1999/xlink" preserveAspectRatio="xMidYMid" width="40" height="40" viewBox="0 0 40 40">
  <defs>
    <style>
      .cls-1 {
        fill: #ffa53b;
      }

      .cls-2 {
        fill: #fff;
        fill-rule: evenodd;
      }
    </style>
  </defs>
  <g>
    <rect width="40" height="40" rx="5" ry="5" class="cls-1"/>
    <path d="M29.500,35.000 C26.186,35.000 23.500,32.314 23.500,29.000 C23.500,25.686 26.186,23.000 29.500,23.000 C32.814,23.000 35.500,25.686 35.500,29.000 C35.500,32.314 32.814,35.000 29.500,35.000 ZM33.389,26.732 C32.999,26.342 32.365,26.342 31.975,26.732 L28.439,30.268 L27.025,28.854 C26.635,28.463 26.001,28.463 25.611,28.854 C25.220,29.244 25.220,29.877 25.611,30.268 L27.732,32.389 C28.123,32.780 28.756,32.780 29.146,32.389 L33.389,28.146 C33.780,27.756 33.780,27.123 33.389,26.732 ZM23.500,21.000 C23.500,21.000 22.978,22.084 24.336,22.895 C22.603,24.362 21.500,26.551 21.500,29.000 C21.500,31.330 22.503,33.421 24.093,34.884 C22.897,34.963 21.679,35.000 20.500,35.000 C14.500,35.000 7.500,34.094 7.500,31.000 C7.500,26.115 14.910,23.818 16.500,23.000 C18.090,22.182 17.500,21.000 17.500,21.000 C17.500,21.000 13.500,17.750 13.500,11.000 C13.500,4.250 20.500,4.000 20.500,4.000 C20.500,4.000 27.500,4.250 27.500,11.000 C27.500,17.750 23.500,21.000 23.500,21.000 Z" class="cls-2"/>
  </g>
</svg>
