<svg xmlns="http://www.w3.org/2000/svg" xmlns:xlink="http://www.w3.org/1999/xlink" preserveAspectRatio="xMidYMid" width="17.656" height="16.907" viewBox="0 0 17.656 16.907">
  <defs>
    <style>
      .cls-1 {
        fill: #3cbffd;
        stroke: #aaa;
        stroke-linejoin: round;
        stroke-width: 1px;
        fill-opacity: 0;
        fill-rule: evenodd;
      }
    </style>
  </defs>
  <path d="M4.121,16.402 C3.973,16.402 3.826,16.356 3.701,16.266 C3.482,16.105 3.372,15.836 3.417,15.568 L4.253,10.700 L0.715,7.251 C0.521,7.060 0.451,6.777 0.535,6.518 C0.618,6.260 0.842,6.072 1.111,6.034 L6.001,5.323 L8.186,0.894 C8.306,0.649 8.554,0.495 8.825,0.495 C9.098,0.495 9.345,0.649 9.465,0.894 L11.652,5.323 L16.541,6.034 C16.810,6.072 17.033,6.260 17.117,6.518 C17.200,6.777 17.130,7.060 16.935,7.251 L13.398,10.700 L14.234,15.568 C14.279,15.835 14.170,16.105 13.949,16.266 C13.730,16.425 13.439,16.446 13.198,16.320 L8.825,14.022 L4.452,16.320 C4.349,16.375 4.236,16.402 4.121,16.402 L4.121,16.402 L4.121,16.402 Z" class="cls-1"/>
</svg>
