<svg xmlns="http://www.w3.org/2000/svg" xmlns:xlink="http://www.w3.org/1999/xlink" preserveAspectRatio="xMidYMid" width="40" height="40" viewBox="0 0 40 40">
  <defs>
    <style>
      .cls-1 {
        fill: #2dcf90;
      }

      .cls-2 {
        fill: #fff;
        fill-rule: evenodd;
      }
    </style>
  </defs>
  <g>
    <rect width="40" height="40" rx="5" ry="5" class="cls-1"/>
    <path d="M28.500,8.000 L28.500,28.000 C28.500,32.418 24.918,36.000 20.500,36.000 C16.082,36.000 12.500,32.418 12.500,28.000 L12.500,17.000 L12.500,15.000 L12.500,13.000 L12.500,11.000 L12.500,8.000 L11.500,8.000 L11.500,6.000 L12.500,6.000 L14.500,6.000 L26.500,6.000 L28.500,6.000 L29.500,6.000 L29.500,8.000 L28.500,8.000 ZM26.500,8.000 L14.500,8.000 L14.500,11.000 L17.500,11.000 L17.500,13.000 L14.500,13.000 L14.500,15.000 L17.500,15.000 L17.500,17.000 L14.500,17.000 L14.500,21.000 L26.500,21.000 L26.500,8.000 Z" class="cls-2"/>
  </g>
</svg>
