<svg xmlns="http://www.w3.org/2000/svg" xmlns:xlink="http://www.w3.org/1999/xlink" preserveAspectRatio="xMidYMid" width="37.281" height="36.968" viewBox="0 0 37.281 36.968">
  <defs>
    <style>
      .cls-1 {
        fill: #e4e4e4;
        fill-rule: evenodd;
      }
    </style>
  </defs>
  <path d="M35.872,10.030 L25.305,10.030 L29.398,14.123 C29.883,14.609 29.883,15.395 29.398,15.881 C29.155,16.123 28.837,16.245 28.519,16.245 C28.201,16.245 27.883,16.123 27.640,15.881 L21.426,9.666 C20.940,9.181 20.940,8.394 21.426,7.909 L27.640,1.694 C28.125,1.209 28.912,1.209 29.398,1.694 C29.883,2.180 29.883,2.966 29.398,3.452 L25.305,7.545 L35.872,7.545 C36.559,7.545 37.115,8.101 37.115,8.787 C37.115,9.474 36.559,10.030 35.872,10.030 ZM21.905,24.248 C22.981,24.345 23.863,23.464 24.842,22.289 C25.918,21.017 29.932,22.387 32.575,24.541 C35.121,26.499 37.274,28.457 37.274,29.926 C37.177,31.590 33.750,37.268 27.779,36.974 C16.325,36.289 3.794,20.332 1.347,14.654 C-1.199,8.682 -0.122,4.472 4.185,1.046 C8.787,-2.576 12.311,4.277 14.269,6.626 C16.325,8.976 15.346,12.108 13.388,13.185 C12.311,13.773 11.723,14.752 14.269,18.570 C15.444,20.332 18.185,23.758 21.905,24.248 ZM11.626,11.619 C13.486,10.444 12.898,9.269 12.115,7.997 C9.961,4.570 7.808,1.438 5.654,3.004 C4.088,4.179 3.109,5.353 2.619,7.507 C2.326,9.171 3.011,12.304 4.185,14.752 C6.633,19.548 17.401,33.645 27.974,34.331 C29.834,34.429 31.303,33.450 32.184,32.764 C33.359,31.883 33.848,31.100 34.435,29.926 C34.729,29.436 32.477,27.576 30.617,26.303 C29.051,25.128 26.897,23.856 26.114,24.639 C25.527,25.226 24.254,26.891 22.101,26.989 C18.185,27.086 12.702,21.310 10.940,17.590 C9.668,14.947 10.059,12.598 11.626,11.619 Z" class="cls-1"/>
</svg>
