<svg xmlns="http://www.w3.org/2000/svg" xmlns:xlink="http://www.w3.org/1999/xlink" preserveAspectRatio="xMidYMid" width="40" height="40" viewBox="0 0 40 40">
  <defs>
    <style>
      .cls-1 {
        fill: #3fa7ff;
      }

      .cls-2 {
        fill: #fff;
        fill-rule: evenodd;
      }
    </style>
  </defs>
  <g>
    <rect width="40" height="40" rx="5" ry="5" class="cls-1"/>
    <path d="M34.500,32.000 L6.500,32.000 C4.843,32.000 3.500,30.657 3.500,29.000 L3.500,11.000 C3.500,9.343 4.843,8.000 6.500,8.000 L34.500,8.000 C36.157,8.000 37.500,9.343 37.500,11.000 L37.500,29.000 C37.500,30.657 36.157,32.000 34.500,32.000 ZM33.500,24.000 C34.052,24.000 34.500,23.552 34.500,23.000 C34.500,22.448 34.052,22.000 33.500,22.000 C32.948,22.000 32.500,22.448 32.500,23.000 C32.500,23.552 32.948,24.000 33.500,24.000 ZM33.500,20.000 C34.052,20.000 34.500,19.552 34.500,19.000 C34.500,18.448 34.052,18.000 33.500,18.000 C32.948,18.000 32.500,18.448 32.500,19.000 C32.500,19.552 32.948,20.000 33.500,20.000 ZM29.500,11.000 L6.500,11.000 L6.500,30.000 L29.500,30.000 L29.500,11.000 ZM33.500,12.000 C32.395,12.000 31.500,12.895 31.500,14.000 C31.500,15.105 32.395,16.000 33.500,16.000 C34.605,16.000 35.500,15.105 35.500,14.000 C35.500,12.895 34.605,12.000 33.500,12.000 ZM16.148,20.790 C16.235,20.703 16.344,20.660 16.442,20.595 C15.774,18.970 16.098,17.034 17.417,15.715 C18.588,14.544 20.242,14.174 21.735,14.569 L19.637,16.666 C19.625,16.671 19.596,17.192 19.637,17.749 L19.783,19.612 L21.741,19.822 C22.061,19.832 22.662,19.982 22.809,19.838 L24.907,17.741 C25.302,19.234 24.932,20.888 23.761,22.059 C22.441,23.378 20.505,23.702 18.881,23.033 C18.816,23.132 18.773,23.241 18.686,23.327 L15.065,27.582 C14.365,28.283 12.912,27.966 12.211,27.265 C11.510,26.564 11.193,25.111 11.894,24.410 L16.148,20.790 Z" class="cls-2"/>
  </g>
</svg>
