<svg xmlns="http://www.w3.org/2000/svg" xmlns:xlink="http://www.w3.org/1999/xlink" preserveAspectRatio="xMidYMid" width="40" height="40" viewBox="0 0 40 40">
  <defs>
    <style>
      .cls-1 {
        fill: #ff836a;
      }

      .cls-2 {
        fill: #fff;
        fill-rule: evenodd;
      }
    </style>
  </defs>
  <g>
    <rect width="40" height="40" rx="5" ry="5" class="cls-1"/>
    <path d="M16.029,28.907 L11.344,34.711 L9.564,30.704 L5.119,29.687 L9.533,24.217 C11.137,26.397 13.396,28.063 16.029,28.907 ZM30.453,24.235 L35.006,29.630 L30.481,30.621 L28.668,34.524 L23.938,28.919 C26.579,28.080 28.844,26.415 30.453,24.235 Z" class="cls-2"/>
    <path d="M28.058,24.741 L24.971,25.157 L23.068,27.622 L20.187,26.439 L17.306,27.622 L15.402,25.157 L12.316,24.741 L11.899,21.654 L9.435,19.751 L10.617,16.870 L9.435,13.989 L11.899,12.085 L12.316,8.999 L15.402,8.582 L17.306,6.118 L20.187,7.300 L23.068,6.118 L24.971,8.582 L28.058,8.999 L28.474,12.085 L30.939,13.989 L29.756,16.870 L30.939,19.751 L28.474,21.654 L28.058,24.741 Z" class="cls-2"/>
  </g>
</svg>
