<svg xmlns="http://www.w3.org/2000/svg" xmlns:xlink="http://www.w3.org/1999/xlink" preserveAspectRatio="xMidYMid" width="44" height="44" viewBox="0 0 44 44">
  <defs>
    <style>
      .cls-1 {
        fill: #19bdff;
        fill-rule: evenodd;
      }
    </style>
  </defs>
  <g>
    <path d="M44.000,22.000 C44.000,34.150 34.150,44.000 22.000,44.000 C9.850,44.000 0.000,34.150 0.000,22.000 C0.000,9.850 9.850,0.000 22.000,0.000 C26.669,0.000 30.987,1.469 34.548,3.949 C34.577,3.947 34.602,3.932 34.632,3.932 C35.306,3.932 35.853,4.479 35.853,5.153 C35.853,5.827 35.306,6.374 34.632,6.374 C34.205,6.374 33.847,6.141 33.629,5.808 C33.628,5.811 33.626,5.814 33.625,5.817 C30.350,3.460 26.343,2.056 22.000,2.056 C10.985,2.056 2.056,10.985 2.056,22.000 C2.056,33.015 10.985,41.944 22.000,41.944 C33.015,41.944 41.944,33.015 41.944,22.000 C41.944,18.588 41.064,15.392 39.552,12.585 C39.277,12.361 39.091,12.035 39.091,11.655 C39.091,10.981 39.643,10.435 40.325,10.435 C41.006,10.435 41.558,10.981 41.558,11.655 C41.558,11.737 41.527,11.808 41.512,11.885 C43.089,14.915 44.000,18.347 44.000,22.000 Z" class="cls-1"/>
    <path d="M29.813,10.897 L24.056,20.766 L23.234,20.766 L21.589,20.766 L20.766,20.766 L15.009,10.897 L17.477,10.897 L22.411,19.356 L27.346,10.897 L29.813,10.897 Z" class="cls-1"/>
    <path d="M21.589,19.944 L23.645,19.944 L23.645,33.925 L21.589,33.925 L21.589,19.944 Z" class="cls-1"/>
    <path d="M15.009,20.766 L30.636,20.766 L30.636,22.822 L15.009,22.822 L15.009,20.766 Z" class="cls-1"/>
    <path d="M15.009,25.701 L30.636,25.701 L30.636,27.757 L15.009,27.757 L15.009,25.701 Z" class="cls-1"/>
  </g>
</svg>
